<svg version="1.1" viewBox="0.0 0.0 328.8976377952756 177.83464566929135" fill="none" stroke="none" stroke-linecap="square" stroke-miterlimit="10" xmlns:xlink="http://www.w3.org/1999/xlink" xmlns="http://www.w3.org/2000/svg"><clipPath id="p.0"><path d="m0 0l328.89764 0l0 177.83464l-328.89764 0l0 -177.83464z" clip-rule="nonzero"/></clipPath><g clip-path="url(#p.0)"><path fill="#000000" fill-opacity="0.0" d="m0 0l328.89764 0l0 177.83464l-328.89764 0z" fill-rule="evenodd"/><path fill="#cfe2f3" d="m71.28346 0l132.15749 0l0 175.40158l-132.15749 0z" fill-rule="evenodd"/><path stroke="#000000" stroke-width="1.0" stroke-linejoin="round" stroke-linecap="butt" d="m71.28346 0l132.15749 0l0 175.40158l-132.15749 0z" fill-rule="evenodd"/><path fill="#000000" fill-opacity="0.0" d="m50.93176 24.0l176.0 0" fill-rule="evenodd"/><path stroke="#000000" stroke-width="1.0" stroke-linejoin="round" stroke-linecap="butt" d="m50.93176 24.0l176.0 0" fill-rule="evenodd"/><path fill="#000000" fill-opacity="0.0" d="m50.93176 90.120735l176.0 0" fill-rule="evenodd"/><path stroke="#000000" stroke-width="1.0" stroke-linejoin="round" stroke-linecap="butt" d="m50.93176 90.120735l176.0 0" fill-rule="evenodd"/><path fill="#000000" fill-opacity="0.0" d="m50.93176 151.42258l176.0 0" fill-rule="evenodd"/><path stroke="#000000" stroke-width="1.0" stroke-linejoin="round" stroke-linecap="butt" d="m50.93176 151.42258l176.0 0" fill-rule="evenodd"/><path fill="#000000" fill-opacity="0.0" d="m0 0l49.85827 0l0 48.0l-49.85827 0z" fill-rule="evenodd"/><path fill="#000000" d="m11.21875 13.966873l0 16.984375l-0.75 0l0 -16.984375l0.75 0zm1.7661438 4.609375l3.921875 0l0 0.34375q-0.375 0 -0.53125 0.125q-0.140625 0.125 -0.140625 0.328125q0 0.21875 0.3125 0.671875q0.109375 0.15625 0.3125 0.46875l0.578125 0.9375l0.6875 -0.9375q0.65625 -0.90625 0.65625 -1.140625q0 -0.203125 -0.15625 -0.328125q-0.15625 -0.125 -0.5 -0.125l0 -0.34375l2.828125 0l0 0.34375q-0.453125 0.015625 -0.78125 0.234375q-0.4375 0.3125 -1.21875 1.359375l-1.140625 1.515625l2.078125 2.984375q0.765625 1.109375 1.09375 1.328125q0.328125 0.21875 0.84375 0.25l0 0.328125l-3.921875 0l0 -0.328125q0.40625 0 0.625 -0.1875q0.171875 -0.125 0.171875 -0.328125q0 -0.21875 -0.578125 -1.0625l-1.21875 -1.78125l-1.34375 1.78125q-0.609375 0.828125 -0.609375 0.984375q0 0.21875 0.203125 0.40625q0.203125 0.171875 0.609375 0.1875l0 0.328125l-2.71875 0l0 -0.328125q0.328125 -0.046875 0.578125 -0.234375q0.34375 -0.25 1.15625 -1.34375l1.75 -2.328125l-1.578125 -2.28125q-0.671875 -0.984375 -1.046875 -1.234375q-0.375 -0.25 -0.921875 -0.25l0 -0.34375z" fill-rule="nonzero"/><path fill="#000000" d="m22.516144 29.857498q0 -1.421875 0.421875 -2.4375q0.421875 -1.015625 1.125 -1.515625q0.546875 -0.390625 1.140625 -0.390625q0.9375 0 1.6875 0.96875q0.953125 1.1875 0.953125 3.234375q0 1.4375 -0.421875 2.4375q-0.40625 1.0 -1.046875 1.453125q-0.640625 0.453125 -1.234375 0.453125q-1.1875 0 -1.96875 -1.390625q-0.65625 -1.171875 -0.65625 -2.8125zm1.1875 0.140625q0 1.703125 0.421875 2.78125q0.34375 0.90625 1.03125 0.90625q0.328125 0 0.671875 -0.296875q0.359375 -0.296875 0.546875 -0.984375q0.265625 -1.046875 0.265625 -2.953125q0 -1.40625 -0.28125 -2.34375q-0.21875 -0.703125 -0.5625 -0.984375q-0.25 -0.203125 -0.609375 -0.203125q-0.40625 0 -0.734375 0.359375q-0.4375 0.515625 -0.59375 1.59375q-0.15625 1.078125 -0.15625 2.125z" fill-rule="nonzero"/><path fill="#000000" d="m33.187912 20.169998l0 -0.15625l-4.015625 -8.09375l0.59375 -0.296875l4.234375 8.46875l-4.234375 8.46875l-0.59375 -0.296875l4.015625 -8.09375z" fill-rule="nonzero"/><path fill="#000000" fill-opacity="0.0" d="m0 66.120735l51.90551 0l0 48.0l-51.90551 0z" fill-rule="evenodd"/><path fill="#000000" d="m11.21875 80.08761l0 16.984375l-0.75 0l0 -16.984375l0.75 0zm1.7661438 4.609375l3.921875 0l0 0.34375q-0.375 0 -0.53125 0.125q-0.140625 0.125 -0.140625 0.328125q0 0.21875 0.3125 0.671875q0.109375 0.15625 0.3125 0.46875l0.578125 0.9375l0.6875 -0.9375q0.65625 -0.90625 0.65625 -1.140625q0 -0.203125 -0.15625 -0.328125q-0.15625 -0.125 -0.5 -0.125l0 -0.34375l2.828125 0l0 0.34375q-0.453125 0.015625 -0.78125 0.234375q-0.4375 0.3125 -1.21875 1.359375l-1.140625 1.515625l2.078125 2.984375q0.765625 1.109375 1.09375 1.328125q0.328125 0.21875 0.84375 0.25l0 0.328125l-3.921875 0l0 -0.328125q0.40625 0 0.625 -0.1875q0.171875 -0.125 0.171875 -0.328125q0 -0.21875 -0.578125 -1.0625l-1.21875 -1.78125l-1.34375 1.78125q-0.609375 0.828125 -0.609375 0.984375q0 0.21875 0.203125 0.40625q0.203125 0.171875 0.609375 0.1875l0 0.328125l-2.71875 0l0 -0.328125q0.328125 -0.046875 0.578125 -0.234375q0.34375 -0.25 1.15625 -1.34375l1.75 -2.328125l-1.578125 -2.28125q-0.671875 -0.984375 -1.046875 -1.234375q-0.375 -0.25 -0.921875 -0.25l0 -0.34375z" fill-rule="nonzero"/><path fill="#000000" d="m23.516144 92.61886l2.015625 -0.984375l0.1875 0l0 6.953125q0 0.6875 0.0625 0.859375q0.0625 0.171875 0.234375 0.265625q0.1875 0.09375 0.75 0.109375l0 0.21875l-3.09375 0l0 -0.21875q0.578125 -0.015625 0.75 -0.09375q0.171875 -0.09375 0.234375 -0.234375q0.0625 -0.15625 0.0625 -0.90625l0 -4.4375q0 -0.90625 -0.0625 -1.15625q-0.03125 -0.203125 -0.15625 -0.28125q-0.109375 -0.09375 -0.265625 -0.09375q-0.21875 0 -0.625 0.1875l-0.09375 -0.1875z" fill-rule="nonzero"/><path fill="#000000" d="m33.187912 86.29073l0 -0.15625l-4.015625 -8.09375l0.59375 -0.296875l4.234375 8.46875l-4.234375 8.46875l-0.59375 -0.296875l4.015625 -8.09375z" fill-rule="nonzero"/><path fill="#000000" fill-opacity="0.0" d="m0 127.42257l49.85827 0l0 48.000008l-49.85827 0z" fill-rule="evenodd"/><path fill="#000000" d="m11.21875 141.38945l0 16.984375l-0.75 0l0 -16.984375l0.75 0zm1.6255188 4.609375l3.890625 0l0 0.34375l-0.1875 0q-0.421875 0 -0.625 0.171875q-0.203125 0.171875 -0.203125 0.4375q0 0.359375 0.296875 0.984375l2.03125 4.203125l1.875 -4.609375q0.15625 -0.359375 0.15625 -0.734375q0 -0.15625 -0.0625 -0.234375q-0.078125 -0.109375 -0.234375 -0.15625q-0.15625 -0.0625 -0.546875 -0.0625l0 -0.34375l2.71875 0l0 0.34375q-0.34375 0.03125 -0.53125 0.140625q-0.171875 0.109375 -0.390625 0.40625q-0.078125 0.125 -0.3125 0.703125l-3.390625 8.328125q-0.5 1.203125 -1.296875 1.828125q-0.796875 0.625 -1.53125 0.625q-0.53125 0 -0.890625 -0.3125q-0.34375 -0.3125 -0.34375 -0.71875q0 -0.375 0.25 -0.609375q0.25 -0.234375 0.6875 -0.234375q0.3125 0 0.828125 0.203125q0.359375 0.140625 0.453125 0.140625q0.28125 0 0.59375 -0.28125q0.328125 -0.28125 0.65625 -1.09375l0.59375 -1.453125l-3.0 -6.296875q-0.140625 -0.28125 -0.4375 -0.703125q-0.234375 -0.3125 -0.375 -0.421875q-0.203125 -0.140625 -0.671875 -0.25l0 -0.34375z" fill-rule="nonzero"/><path fill="#000000" d="m26.969269 147.59258l0 -0.15625l-4.015625 -8.09375l0.59375 -0.296875l4.234375 8.46875l-4.234375 8.46875l-0.59375 -0.296875l4.015625 -8.09375z" fill-rule="nonzero"/><path fill="#000000" fill-opacity="0.0" d="m228.0 0l51.905518 0l0 48.0l-51.905518 0z" fill-rule="evenodd"/><path fill="#000000" d="m239.21875 13.966873l0 16.984375l-0.75 0l0 -16.984375l0.75 0zm1.7661438 4.609375l3.921875 0l0 0.34375q-0.375 0 -0.53125 0.125q-0.140625 0.125 -0.140625 0.328125q0 0.21875 0.3125 0.671875q0.109375 0.15625 0.3125 0.46875l0.578125 0.9375l0.6875 -0.9375q0.65625 -0.90625 0.65625 -1.140625q0 -0.203125 -0.15625 -0.328125q-0.15625 -0.125 -0.5 -0.125l0 -0.34375l2.828125 0l0 0.34375q-0.453125 0.015625 -0.78125 0.234375q-0.4375 0.3125 -1.21875 1.359375l-1.140625 1.515625l2.078125 2.984375q0.765625 1.109375 1.09375 1.328125q0.328125 0.21875 0.84375 0.25l0 0.328125l-3.921875 0l0 -0.328125q0.40625 0 0.625 -0.1875q0.171875 -0.125 0.171875 -0.328125q0 -0.21875 -0.578125 -1.0625l-1.21875 -1.78125l-1.34375 1.78125q-0.609375 0.828125 -0.609375 0.984375q0 0.21875 0.203125 0.40625q0.203125 0.171875 0.609375 0.1875l0 0.328125l-2.71875 0l0 -0.328125q0.328125 -0.046875 0.578125 -0.234375q0.34375 -0.25 1.15625 -1.34375l1.75 -2.328125l-1.578125 -2.28125q-0.671875 -0.984375 -1.046875 -1.234375q-0.375 -0.25 -0.921875 -0.25l0 -0.34375z" fill-rule="nonzero"/><path fill="#000000" d="m250.51614 29.857498q0 -1.421875 0.421875 -2.4375q0.421875 -1.015625 1.125 -1.515625q0.546875 -0.390625 1.140625 -0.390625q0.9375 0 1.6875 0.96875q0.953125 1.1875 0.953125 3.234375q0 1.4375 -0.421875 2.4375q-0.40625 1.0 -1.046875 1.453125q-0.640625 0.453125 -1.234375 0.453125q-1.1875 0 -1.96875 -1.390625q-0.65625 -1.171875 -0.65625 -2.8125zm1.1875 0.140625q0 1.703125 0.421875 2.78125q0.34375 0.90625 1.03125 0.90625q0.328125 0 0.671875 -0.296875q0.359375 -0.296875 0.546875 -0.984375q0.265625 -1.046875 0.265625 -2.953125q0 -1.40625 -0.28125 -2.34375q-0.21875 -0.703125 -0.5625 -0.984375q-0.25 -0.203125 -0.609375 -0.203125q-0.40625 0 -0.734375 0.359375q-0.4375 0.515625 -0.59375 1.59375q-0.15625 1.078125 -0.15625 2.125z" fill-rule="nonzero"/><path fill="#000000" d="m261.18793 20.169998l0 -0.15625l-4.015625 -8.09375l0.59375 -0.296875l4.234375 8.46875l-4.234375 8.46875l-0.59375 -0.296875l4.015625 -8.09375z" fill-rule="nonzero"/><path fill="#000000" fill-opacity="0.0" d="m228.0 66.120735l51.905518 0l0 48.0l-51.905518 0z" fill-rule="evenodd"/><path fill="#000000" d="m239.21875 80.08761l0 16.984375l-0.75 0l0 -16.984375l0.75 0zm1.7661438 4.609375l3.921875 0l0 0.34375q-0.375 0 -0.53125 0.125q-0.140625 0.125 -0.140625 0.328125q0 0.21875 0.3125 0.671875q0.109375 0.15625 0.3125 0.46875l0.578125 0.9375l0.6875 -0.9375q0.65625 -0.90625 0.65625 -1.140625q0 -0.203125 -0.15625 -0.328125q-0.15625 -0.125 -0.5 -0.125l0 -0.34375l2.828125 0l0 0.34375q-0.453125 0.015625 -0.78125 0.234375q-0.4375 0.3125 -1.21875 1.359375l-1.140625 1.515625l2.078125 2.984375q0.765625 1.109375 1.09375 1.328125q0.328125 0.21875 0.84375 0.25l0 0.328125l-3.921875 0l0 -0.328125q0.40625 0 0.625 -0.1875q0.171875 -0.125 0.171875 -0.328125q0 -0.21875 -0.578125 -1.0625l-1.21875 -1.78125l-1.34375 1.78125q-0.609375 0.828125 -0.609375 0.984375q0 0.21875 0.203125 0.40625q0.203125 0.171875 0.609375 0.1875l0 0.328125l-2.71875 0l0 -0.328125q0.328125 -0.046875 0.578125 -0.234375q0.34375 -0.25 1.15625 -1.34375l1.75 -2.328125l-1.578125 -2.28125q-0.671875 -0.984375 -1.046875 -1.234375q-0.375 -0.25 -0.921875 -0.25l0 -0.34375z" fill-rule="nonzero"/><path fill="#000000" d="m251.51614 92.61886l2.015625 -0.984375l0.1875 0l0 6.953125q0 0.6875 0.0625 0.859375q0.0625 0.171875 0.234375 0.265625q0.1875 0.09375 0.75 0.109375l0 0.21875l-3.09375 0l0 -0.21875q0.578125 -0.015625 0.75 -0.09375q0.171875 -0.09375 0.234375 -0.234375q0.0625 -0.15625 0.0625 -0.90625l0 -4.4375q0 -0.90625 -0.0625 -1.15625q-0.03125 -0.203125 -0.15625 -0.28125q-0.109375 -0.09375 -0.265625 -0.09375q-0.21875 0 -0.625 0.1875l-0.09375 -0.1875z" fill-rule="nonzero"/><path fill="#000000" d="m261.18793 86.29073l0 -0.15625l-4.015625 -8.09375l0.59375 -0.296875l4.234375 8.46875l-4.234375 8.46875l-0.59375 -0.296875l4.015625 -8.09375z" fill-rule="nonzero"/><path fill="#000000" d="m129.22835 24.251968l0 0c0 -4.9227276 3.76503 -8.913385 8.409454 -8.913385l0 0c2.2303162 0 4.369293 0.939085 5.9463654 2.61067c1.5770874 1.6715832 2.4630737 3.9387379 2.4630737 6.3027153l0 0c0 4.9227276 -3.76503 8.913387 -8.409439 8.913387l0 0c-4.6444244 0 -8.409454 -3.9906597 -8.409454 -8.913387z" fill-rule="evenodd"/><path stroke="#000000" stroke-width="1.0" stroke-linejoin="round" stroke-linecap="butt" d="m129.22835 24.251968l0 0c0 -4.9227276 3.76503 -8.913385 8.409454 -8.913385l0 0c2.2303162 0 4.369293 0.939085 5.9463654 2.61067c1.5770874 1.6715832 2.4630737 3.9387379 2.4630737 6.3027153l0 0c0 4.9227276 -3.76503 8.913387 -8.409439 8.913387l0 0c-4.6444244 0 -8.409454 -3.9906597 -8.409454 -8.913387z" fill-rule="evenodd"/><path fill="#000000" fill-opacity="0.0" d="m137.6378 33.165356l0 127.18109" fill-rule="evenodd"/><path stroke="#000000" stroke-width="1.0" stroke-linejoin="round" stroke-linecap="butt" d="m137.6378 33.165356l0 127.18109" fill-rule="evenodd"/><path fill="#000000" fill-opacity="0.0" d="m129.22835 151.42258l0 0c0 -4.9227295 3.76503 -8.913391 8.409454 -8.913391l0 0c2.2303162 0 4.369293 0.9390869 5.9463654 2.610672c1.5770874 1.6715851 2.4630737 3.938736 2.4630737 6.302719l0 0c0 4.9227295 -3.76503 8.913376 -8.409439 8.913376l0 0c-4.6444244 0 -8.409454 -3.9906464 -8.409454 -8.913376z" fill-rule="evenodd"/><path stroke="#000000" stroke-width="1.0" stroke-linejoin="round" stroke-linecap="butt" d="m129.22835 151.42258l0 0c0 -4.9227295 3.76503 -8.913391 8.409454 -8.913391l0 0c2.2303162 0 4.369293 0.9390869 5.9463654 2.610672c1.5770874 1.6715851 2.4630737 3.938736 2.4630737 6.302719l0 0c0 4.9227295 -3.76503 8.913376 -8.409439 8.913376l0 0c-4.6444244 0 -8.409454 -3.9906464 -8.409454 -8.913376z" fill-rule="evenodd"/><path fill="#000000" fill-opacity="0.0" d="m213.96326 127.42257l114.92914 0l0 39.527565l-114.92914 0z" fill-rule="evenodd"/><path fill="#000000" d="m240.31654 141.38945l0 16.984375l-0.75 0l0 -16.984375l0.75 0zm1.6255188 4.609375l3.890625 0l0 0.34375l-0.1875 0q-0.421875 0 -0.625 0.171875q-0.203125 0.171875 -0.203125 0.4375q0 0.359375 0.296875 0.984375l2.03125 4.203125l1.875 -4.609375q0.15625 -0.359375 0.15625 -0.734375q0 -0.15625 -0.0625 -0.234375q-0.078125 -0.109375 -0.234375 -0.15625q-0.15625 -0.0625 -0.546875 -0.0625l0 -0.34375l2.71875 0l0 0.34375q-0.34375 0.03125 -0.53125 0.140625q-0.171875 0.109375 -0.390625 0.40625q-0.078125 0.125 -0.3125 0.703125l-3.390625 8.328125q-0.5 1.203125 -1.296875 1.828125q-0.796875 0.625 -1.53125 0.625q-0.53125 0 -0.890625 -0.3125q-0.34375 -0.3125 -0.34375 -0.71875q0 -0.375 0.25 -0.609375q0.25 -0.234375 0.6875 -0.234375q0.3125 0 0.828125 0.203125q0.359375 0.140625 0.453125 0.140625q0.28125 0 0.59375 -0.28125q0.328125 -0.28125 0.65625 -1.09375l0.59375 -1.453125l-3.0 -6.296875q-0.140625 -0.28125 -0.4375 -0.703125q-0.234375 -0.3125 -0.375 -0.421875q-0.203125 -0.140625 -0.671875 -0.25l0 -0.34375z" fill-rule="nonzero"/><path fill="#000000" d="m256.12958 147.7332l0 2.75l-0.51564026 0l0 -2.75l-2.75 0l0 -0.515625l2.75 0l0 -2.75l0.51564026 0l0 2.75l2.75 0l0 0.515625l-2.75 0zm-0.21876526 3.421875q1.4843903 0 2.5937653 -1.125q1.046875 -1.03125 1.046875 -2.515625q0 -1.484375 -1.046875 -2.53125q-1.109375 -1.109375 -2.5937653 -1.109375q-1.484375 0 -2.59375 1.109375q-1.046875 1.046875 -1.046875 2.53125q0 1.484375 1.046875 2.515625q1.109375 1.125 2.59375 1.125zm3.0468903 -0.828125q-1.34375 1.34375 -3.0468903 1.34375q-1.703125 0 -2.96875 -1.265625q-1.1875 -1.1875 -1.1875 -2.890625q0 -1.703125 1.109375 -2.828125q1.34375 -1.328125 3.046875 -1.328125q1.7031403 0 2.9687653 1.265625q1.1875 1.1875 1.1875 2.890625q0 1.703125 -1.109375 2.8125z" fill-rule="nonzero"/><path fill="#000000" d="m264.50458 146.65508l0 5.484375q0 1.171875 0.25 1.46875q0.34375 0.40625 0.90625 0.40625l0.75 0l0 0.328125l-4.96875 0l0 -0.328125l0.359375 0q0.375 0 0.671875 -0.171875q0.296875 -0.1875 0.40625 -0.5q0.125 -0.3125 0.125 -1.203125l0 -5.484375l-1.625 0l0 -0.65625l1.625 0l0 -0.546875q0 -1.25 0.390625 -2.109375q0.40625 -0.875 1.234375 -1.40625q0.828125 -0.53125 1.859375 -0.53125q0.953125 0 1.75 0.625q0.53125 0.40625 0.53125 0.921875q0 0.265625 -0.234375 0.515625q-0.234375 0.234375 -0.515625 0.234375q-0.203125 0 -0.4375 -0.140625q-0.234375 -0.15625 -0.578125 -0.65625q-0.328125 -0.5 -0.609375 -0.671875q-0.28125 -0.171875 -0.640625 -0.171875q-0.40625 0 -0.703125 0.234375q-0.296875 0.21875 -0.421875 0.6875q-0.125 0.46875 -0.125 2.40625l0 0.609375l2.15625 0l0 0.65625l-2.15625 0zm8.165802 11.34375l0 0.328125q-1.375 -0.6875 -2.296875 -1.609375q-1.3125 -1.328125 -2.03125 -3.125q-0.703125 -1.796875 -0.703125 -3.71875q0 -2.828125 1.390625 -5.15625q1.390625 -2.328125 3.640625 -3.328125l0 0.375q-1.125 0.625 -1.84375 1.703125q-0.71875 1.078125 -1.078125 2.734375q-0.359375 1.640625 -0.359375 3.4375q0 1.9375 0.3125 3.53125q0.234375 1.265625 0.5625 2.015625q0.34375 0.765625 0.90625 1.46875q0.578125 0.703125 1.5 1.34375zm0.665802 -12.0l3.921875 0l0 0.34375q-0.375 0 -0.53125 0.125q-0.140625 0.125 -0.140625 0.328125q0 0.21875 0.3125 0.671875q0.109375 0.15625 0.3125 0.46875l0.578125 0.9375l0.6875 -0.9375q0.65625 -0.90625 0.65625 -1.140625q0 -0.203125 -0.15625 -0.328125q-0.15625 -0.125 -0.5 -0.125l0 -0.34375l2.828125 0l0 0.34375q-0.453125 0.015625 -0.78125 0.234375q-0.4375 0.3125 -1.21875 1.359375l-1.140625 1.515625l2.078125 2.984375q0.765625 1.109375 1.09375 1.328125q0.328125 0.21875 0.84375 0.25l0 0.328125l-3.921875 0l0 -0.328125q0.40625 0 0.625 -0.1875q0.171875 -0.125 0.171875 -0.328125q0 -0.21875 -0.578125 -1.0625l-1.21875 -1.78125l-1.34375 1.78125q-0.609375 0.828125 -0.609375 0.984375q0 0.21875 0.203125 0.40625q0.203125 0.171875 0.609375 0.1875l0 0.328125l-2.71875 0l0 -0.328125q0.328125 -0.046875 0.578125 -0.234375q0.34375 -0.25 1.15625 -1.34375l1.75 -2.328125l-1.578125 -2.28125q-0.671875 -0.984375 -1.046875 -1.234375q-0.375 -0.25 -0.921875 -0.25l0 -0.34375z" fill-rule="nonzero"/><path fill="#000000" d="m282.86743 157.28008q0 -1.421875 0.421875 -2.4375q0.421875 -1.015625 1.125 -1.515625q0.546875 -0.390625 1.140625 -0.390625q0.9375 0 1.6875 0.96875q0.953125 1.1875 0.953125 3.234375q0 1.4375 -0.421875 2.4375q-0.40625 1.0 -1.046875 1.453125q-0.640625 0.453125 -1.234375 0.453125q-1.1875 0 -1.96875 -1.390625q-0.65625 -1.171875 -0.65625 -2.8125zm1.1875 0.140625q0 1.703125 0.421875 2.78125q0.34375 0.90625 1.03125 0.90625q0.328125 0 0.671875 -0.296875q0.359375 -0.296875 0.546875 -0.984375q0.265625 -1.046875 0.265625 -2.953125q0 -1.40625 -0.28125 -2.34375q-0.21875 -0.703125 -0.5625 -0.984375q-0.25 -0.203125 -0.609375 -0.203125q-0.40625 0 -0.734375 0.359375q-0.4375 0.515625 -0.59375 1.59375q-0.15625 1.078125 -0.15625 2.125z" fill-rule="nonzero"/><path fill="#000000" d="m288.88293 145.99883l3.921875 0l0 0.34375q-0.375 0 -0.53125 0.125q-0.140625 0.125 -0.140625 0.328125q0 0.21875 0.3125 0.671875q0.109375 0.15625 0.3125 0.46875l0.578125 0.9375l0.6875 -0.9375q0.65625 -0.90625 0.65625 -1.140625q0 -0.203125 -0.15625 -0.328125q-0.15625 -0.125 -0.5 -0.125l0 -0.34375l2.828125 0l0 0.34375q-0.453125 0.015625 -0.78125 0.234375q-0.4375 0.3125 -1.21875 1.359375l-1.140625 1.515625l2.078125 2.984375q0.765625 1.109375 1.09375 1.328125q0.328125 0.21875 0.84375 0.25l0 0.328125l-3.921875 0l0 -0.328125q0.40625 0 0.625 -0.1875q0.171875 -0.125 0.171875 -0.328125q0 -0.21875 -0.578125 -1.0625l-1.21875 -1.78125l-1.34375 1.78125q-0.609375 0.828125 -0.609375 0.984375q0 0.21875 0.203125 0.40625q0.203125 0.171875 0.609375 0.1875l0 0.328125l-2.71875 0l0 -0.328125q0.328125 -0.046875 0.578125 -0.234375q0.34375 -0.25 1.15625 -1.34375l1.75 -2.328125l-1.578125 -2.28125q-0.671875 -0.984375 -1.046875 -1.234375q-0.375 -0.25 -0.921875 -0.25l0 -0.34375z" fill-rule="nonzero"/><path fill="#000000" d="m299.41418 153.9207l2.015625 -0.984375l0.1875 0l0 6.953125q0 0.6875 0.0625 0.859375q0.0625 0.171875 0.234375 0.265625q0.1875 0.09375 0.75 0.109375l0 0.21875l-3.09375 0l0 -0.21875q0.578125 -0.015625 0.75 -0.09375q0.171875 -0.09375 0.234375 -0.234375q0.0625 -0.15625 0.0625 -0.90625l0 -4.4375q0 -0.90625 -0.0625 -1.15625q-0.03125 -0.203125 -0.15625 -0.28125q-0.109375 -0.09375 -0.265625 -0.09375q-0.21875 0 -0.625 0.1875l-0.09375 -0.1875z" fill-rule="nonzero"/><path fill="#000000" d="m304.6016 141.76445l0 -0.375q1.375 0.6875 2.296875 1.609375q1.3125 1.328125 2.015625 3.125q0.71875 1.78125 0.71875 3.734375q0 2.8125 -1.390625 5.140625q-1.390625 2.328125 -3.640625 3.328125l0 -0.328125q1.125 -0.625 1.84375 -1.703125q0.71875 -1.0625 1.0625 -2.71875q0.359375 -1.65625 0.359375 -3.453125q0 -1.9375 -0.296875 -3.546875q-0.234375 -1.25 -0.578125 -2.0q-0.328125 -0.765625 -0.90625 -1.46875q-0.5625 -0.703125 -1.484375 -1.34375z" fill-rule="nonzero"/><path fill="#000000" d="m315.29865 147.59258l0 -0.15625l-4.015625 -8.09375l0.59375 -0.296875l4.234375 8.46875l-4.234375 8.46875l-0.59375 -0.296875l4.015625 -8.09375z" fill-rule="nonzero"/><path fill="#000000" fill-opacity="0.0" d="m71.28346 41.879265l81.88977 0l0 39.527557l-81.88977 0z" fill-rule="evenodd"/><path fill="#000000" d="m106.20164 56.439888l5.21875 0l-0.09375 0.34375q-0.796875 0.015625 -1.140625 0.15625q-0.34375 0.125 -0.59375 0.46875q-0.234375 0.328125 -0.5 1.25l-1.265625 4.359375q-0.34375 1.171875 -0.40625 1.53125q-0.109375 0.59375 -0.109375 1.09375q0 1.09375 0.8125 1.859375q0.828125 0.765625 2.203125 0.765625q0.90625 0 1.609375 -0.34375q0.71875 -0.34375 1.21875 -0.953125q0.515625 -0.625 0.921875 -1.671875q0.421875 -1.0625 0.75 -2.125l1.09375 -3.78125q0.40625 -1.40625 0.40625 -1.828125q0 -0.3125 -0.28125 -0.515625q-0.28125 -0.21875 -1.125 -0.265625l0.109375 -0.34375l3.921875 0l-0.109375 0.34375q-0.6875 0 -1.0 0.140625q-0.296875 0.125 -0.53125 0.46875q-0.21875 0.34375 -0.5 1.328125l-1.34375 4.578125q-0.640625 2.234375 -1.21875 3.296875q-0.578125 1.0625 -1.671875 1.78125q-1.078125 0.703125 -2.6875 0.703125q-1.859375 0 -3.0 -1.046875q-1.140625 -1.0625 -1.140625 -2.40625q0 -0.546875 0.109375 -1.15625q0.0625 -0.40625 0.34375 -1.390625l1.21875 -4.1875q0.265625 -0.921875 0.265625 -1.34375q0 -0.34375 -0.265625 -0.515625q-0.265625 -0.1875 -1.3125 -0.25l0.09375 -0.34375z" fill-rule="nonzero"/><path fill="#000000" d="m120.90896 70.45551l-0.109375 0.390625l-0.875 0l-0.671875 2.65625q-0.4375 1.75 -0.890625 2.71875q-0.640625 1.34375 -1.375 1.875q-0.5625 0.390625 -1.125 0.390625q-0.359375 0 -0.609375 -0.21875q-0.1875 -0.15625 -0.1875 -0.390625q0 -0.203125 0.15625 -0.34375q0.15625 -0.140625 0.375 -0.140625q0.15625 0 0.28125 0.09375q0.109375 0.109375 0.109375 0.25q0 0.125 -0.125 0.25q-0.109375 0.078125 -0.109375 0.125q0 0.046875 0.046875 0.078125q0.0625 0.046875 0.171875 0.046875q0.265625 0 0.5625 -0.171875q0.28125 -0.15625 0.5 -0.484375q0.21875 -0.328125 0.421875 -0.9375q0.09375 -0.25 0.453125 -1.6875l1.0625 -4.109375l-1.0625 0l0.09375 -0.390625q0.5 0 0.703125 -0.0625q0.203125 -0.078125 0.359375 -0.28125q0.171875 -0.203125 0.4375 -0.734375q0.359375 -0.734375 0.6875 -1.140625q0.453125 -0.53125 0.9375 -0.796875q0.5 -0.28125 0.9375 -0.28125q0.46875 0 0.75 0.234375q0.28125 0.234375 0.28125 0.515625q0 0.203125 -0.140625 0.359375q-0.140625 0.140625 -0.359375 0.140625q-0.1875 0 -0.3125 -0.109375q-0.109375 -0.109375 -0.109375 -0.265625q0 -0.09375 0.078125 -0.234375q0.078125 -0.140625 0.078125 -0.1875q0 -0.09375 -0.0625 -0.125q-0.078125 -0.0625 -0.234375 -0.0625q-0.375 0 -0.6875 0.234375q-0.40625 0.328125 -0.71875 1.015625q-0.171875 0.359375 -0.609375 1.78125l0.890625 0z" fill-rule="nonzero"/></g></svg>