<svg version="1.1" viewBox="0.0 0.0 545.7532808398951 300.45669291338584" fill="none" stroke="none" stroke-linecap="square" stroke-miterlimit="10" xmlns:xlink="http://www.w3.org/1999/xlink" xmlns="http://www.w3.org/2000/svg"><clipPath id="p.0"><path d="m0 0l545.7533 0l0 300.4567l-545.7533 0l0 -300.4567z" clip-rule="nonzero"/></clipPath><g clip-path="url(#p.0)"><path fill="#000000" fill-opacity="0.0" d="m0 0l545.7533 0l0 300.4567l-545.7533 0z" fill-rule="evenodd"/><path fill="#cfe2f3" d="m105.984085 114.57741l156.02153 0l0 158.39082l-156.02153 0z" fill-rule="evenodd"/><path stroke="#000000" stroke-width="1.0" stroke-linejoin="round" stroke-linecap="butt" d="m105.984085 114.57741l156.02153 0l0 158.39082l-156.02153 0z" fill-rule="evenodd"/><path fill="#000000" d="m176.24681 186.4222l6.71875 0l-0.125 0.4375q-1.03125 0.015625 -1.484375 0.1875q-0.4375 0.171875 -0.75 0.609375q-0.296875 0.421875 -0.640625 1.59375l-1.625 5.625q-0.4375 1.5 -0.515625 1.96875q-0.140625 0.75 -0.140625 1.40625q0 1.40625 1.046875 2.390625q1.0625 0.984375 2.828125 0.984375q1.15625 0 2.0625 -0.4375q0.921875 -0.453125 1.5625 -1.234375q0.65625 -0.796875 1.1875 -2.140625q0.546875 -1.359375 0.96875 -2.75l1.40625 -4.84375q0.515625 -1.8125 0.515625 -2.375q0 -0.375 -0.359375 -0.65625q-0.34375 -0.28125 -1.4375 -0.328125l0.125 -0.4375l5.046875 0l-0.125 0.4375q-0.890625 0 -1.28125 0.171875q-0.390625 0.15625 -0.6875 0.609375q-0.296875 0.4375 -0.65625 1.703125l-1.71875 5.890625q-0.828125 2.875 -1.578125 4.234375q-0.734375 1.359375 -2.140625 2.28125q-1.390625 0.921875 -3.46875 0.921875q-2.390625 0 -3.859375 -1.34375q-1.453125 -1.359375 -1.453125 -3.109375q0 -0.6875 0.125 -1.46875q0.09375 -0.515625 0.453125 -1.78125l1.578125 -5.40625q0.328125 -1.171875 0.328125 -1.71875q0 -0.4375 -0.34375 -0.671875q-0.328125 -0.25 -1.671875 -0.3125l0.109375 -0.4375z" fill-rule="nonzero"/><path fill="#000000" d="m195.18822 204.4222l-0.140625 0.515625l-1.140625 0l-0.859375 3.421875q-0.578125 2.25 -1.15625 3.5q-0.8125 1.734375 -1.765625 2.40625q-0.71875 0.5 -1.4375 0.5q-0.46875 0 -0.796875 -0.28125q-0.25 -0.1875 -0.25 -0.5q0 -0.25 0.203125 -0.4375q0.203125 -0.1875 0.484375 -0.1875q0.21875 0 0.359375 0.125q0.140625 0.140625 0.140625 0.3125q0 0.171875 -0.15625 0.328125q-0.125 0.109375 -0.125 0.15625q0 0.078125 0.046875 0.109375q0.078125 0.0625 0.21875 0.0625q0.34375 0 0.71875 -0.21875q0.359375 -0.203125 0.65625 -0.625q0.296875 -0.421875 0.546875 -1.203125q0.109375 -0.328125 0.59375 -2.171875l1.359375 -5.296875l-1.359375 0l0.109375 -0.515625q0.640625 0 0.890625 -0.078125q0.265625 -0.09375 0.484375 -0.34375q0.21875 -0.265625 0.5625 -0.953125q0.453125 -0.9375 0.875 -1.453125q0.578125 -0.703125 1.21875 -1.046875q0.640625 -0.34375 1.203125 -0.34375q0.59375 0 0.953125 0.296875q0.359375 0.296875 0.359375 0.65625q0 0.265625 -0.1875 0.453125q-0.171875 0.1875 -0.453125 0.1875q-0.25 0 -0.40625 -0.140625q-0.140625 -0.140625 -0.140625 -0.328125q0 -0.125 0.09375 -0.3125q0.109375 -0.1875 0.109375 -0.25q0 -0.109375 -0.078125 -0.15625q-0.09375 -0.078125 -0.296875 -0.078125q-0.484375 0 -0.875 0.3125q-0.53125 0.40625 -0.9375 1.296875q-0.21875 0.453125 -0.78125 2.28125l1.15625 0z" fill-rule="nonzero"/><path fill="#000000" fill-opacity="0.0" d="m108.51464 119.747604l55.662926 0l0 26.511139l-55.662926 0z" fill-rule="evenodd"/><path fill="#000000" d="m120.749016 138.4176q0.453125 0.484375 0.671875 0.953125q0.171875 0.328125 0.546875 1.71875l0.796875 -1.203125q0.328125 -0.4375 0.78125 -0.828125q0.453125 -0.390625 0.796875 -0.546875q0.21875 -0.09375 0.484375 -0.09375q0.390625 0 0.625 0.21875q0.234375 0.203125 0.234375 0.5q0 0.359375 -0.140625 0.484375q-0.25 0.21875 -0.578125 0.21875q-0.203125 0 -0.421875 -0.078125q-0.421875 -0.140625 -0.5625 -0.140625q-0.21875 0 -0.53125 0.25q-0.5625 0.46875 -1.34375 1.828125l0.75 3.140625q0.171875 0.71875 0.28125 0.859375q0.125 0.140625 0.25 0.140625q0.1875 0 0.4375 -0.203125q0.5 -0.421875 0.859375 -1.09375l0.328125 0.15625q-0.578125 1.078125 -1.46875 1.78125q-0.5 0.40625 -0.84375 0.40625q-0.515625 0 -0.8125 -0.578125q-0.1875 -0.34375 -0.796875 -3.0625q-1.40625 2.46875 -2.265625 3.1875q-0.5625 0.453125 -1.078125 0.453125q-0.359375 0 -0.671875 -0.265625q-0.21875 -0.203125 -0.21875 -0.53125q0 -0.3125 0.203125 -0.5q0.203125 -0.203125 0.5 -0.203125q0.28125 0 0.609375 0.28125q0.234375 0.21875 0.375 0.21875q0.109375 0 0.28125 -0.140625q0.421875 -0.359375 1.15625 -1.5q0.75 -1.15625 0.96875 -1.65625q-0.5625 -2.21875 -0.609375 -2.34375q-0.203125 -0.59375 -0.546875 -0.828125q-0.328125 -0.25 -0.984375 -0.25q-0.21875 0 -0.484375 0.015625l0 -0.328125l2.421875 -0.4375z" fill-rule="nonzero"/><path fill="#000000" d="m130.09204 145.26135q0.78125 0 1.3125 0.65625q0.53125 0.640625 0.53125 2.046875q0 1.203125 -0.40625 2.453125q-0.390625 1.25 -1.09375 2.171875q-0.578125 0.71875 -1.203125 1.046875q-0.359375 0.171875 -0.84375 0.171875q-0.7968674 0 -1.3281174 -0.640625q-0.53125 -0.65625 -0.53125 -2.0625q0 -1.390625 0.546875 -2.796875q0.625 -1.640625 1.5937424 -2.484375q0.640625 -0.5625 1.421875 -0.5625zm0.015625 0.3125q-0.359375 0 -0.71875 0.28125q-0.359375 0.28125 -0.75 1.15625q-0.390625 0.875 -0.7343674 2.25q-0.453125 1.796875 -0.453125 3.0625q0 0.640625 0.265625 0.953125q0.28125 0.3125 0.6718674 0.3125q0.359375 0 0.625 -0.25q0.703125 -0.65625 1.203125 -2.234375q0.796875 -2.59375 0.796875 -4.21875q0 -0.671875 -0.28125 -0.984375q-0.265625 -0.328125 -0.625 -0.328125z" fill-rule="nonzero"/><path fill="#000000" fill-opacity="0.0" d="m108.51464 174.6922l55.662926 0l0 26.511124l-55.662926 0z" fill-rule="evenodd"/><path fill="#000000" d="m120.749016 193.3622q0.453125 0.484375 0.671875 0.953125q0.171875 0.328125 0.546875 1.71875l0.796875 -1.203125q0.328125 -0.4375 0.78125 -0.828125q0.453125 -0.390625 0.796875 -0.546875q0.21875 -0.09375 0.484375 -0.09375q0.390625 0 0.625 0.21875q0.234375 0.203125 0.234375 0.5q0 0.359375 -0.140625 0.484375q-0.25 0.21875 -0.578125 0.21875q-0.203125 0 -0.421875 -0.078125q-0.421875 -0.140625 -0.5625 -0.140625q-0.21875 0 -0.53125 0.25q-0.5625 0.46875 -1.34375 1.828125l0.75 3.140625q0.171875 0.71875 0.28125 0.859375q0.125 0.140625 0.25 0.140625q0.1875 0 0.4375 -0.203125q0.5 -0.421875 0.859375 -1.09375l0.328125 0.15625q-0.578125 1.078125 -1.46875 1.78125q-0.5 0.40625 -0.84375 0.40625q-0.515625 0 -0.8125 -0.578125q-0.1875 -0.34375 -0.796875 -3.0625q-1.40625 2.46875 -2.265625 3.1875q-0.5625 0.453125 -1.078125 0.453125q-0.359375 0 -0.671875 -0.265625q-0.21875 -0.203125 -0.21875 -0.53125q0 -0.3125 0.203125 -0.5q0.203125 -0.203125 0.5 -0.203125q0.28125 0 0.609375 0.28125q0.234375 0.21875 0.375 0.21875q0.109375 0 0.28125 -0.140625q0.421875 -0.359375 1.15625 -1.5q0.75 -1.15625 0.96875 -1.65625q-0.5625 -2.21875 -0.609375 -2.34375q-0.203125 -0.59375 -0.546875 -0.828125q-0.328125 -0.25 -0.984375 -0.25q-0.21875 0 -0.484375 0.015625l0 -0.328125l2.421875 -0.4375z" fill-rule="nonzero"/><path fill="#000000" d="m130.98267 200.20595l-1.953125 6.8125q-0.171875 0.59375 -0.171875 0.859375q0 0.234375 0.15625 0.359375q0.15625 0.109375 0.734375 0.15625l-0.0625 0.21875l-3.1249924 0l0.078125 -0.21875q0.5 -0.015625 0.65625 -0.078125q0.25 -0.109375 0.375 -0.296875q0.203125 -0.28125 0.42186737 -1.0l1.40625 -4.890625q0.125 -0.4375 0.140625 -0.515625q0.015625 -0.125 0.015625 -0.234375q0 -0.21875 -0.125 -0.328125q-0.109375 -0.125 -0.3125 -0.125q-0.15625 0 -0.484375 0.078125l-0.078125 -0.21875l2.046875 -0.578125l0.28125 0z" fill-rule="nonzero"/><path fill="#000000" fill-opacity="0.0" d="m105.984085 235.40903l55.662933 0l0 26.828003l-55.662933 0z" fill-rule="evenodd"/><path fill="#000000" d="m117.96846 254.07903q0.3125 0.53125 0.421875 1.0q0.125 0.453125 0.25 1.7968903l0.390625 4.484375q0.546875 -0.65625 1.59375 -2.078125q0.5 -0.6875 1.234375 -1.875q0.4375 -0.734375 0.546875 -1.03125q0.046875 -0.140625 0.046875 -0.296875q0 -0.09376526 -0.0625 -0.15626526q-0.0625 -0.078125 -0.328125 -0.15625q-0.265625 -0.09375 -0.453125 -0.3125q-0.171875 -0.234375 -0.171875 -0.546875q0 -0.359375 0.21875 -0.59375q0.21875 -0.234375 0.546875 -0.234375q0.40625 0 0.6875 0.34375q0.28125 0.328125 0.28125 0.90625q0 0.71876526 -0.5 1.6562653q-0.484375 0.921875 -1.890625 2.84375q-1.40625 1.90625 -3.390625 4.15625q-1.375 1.5625 -2.046875 1.96875q-0.65625 0.40625 -1.140625 0.40625q-0.28125 0 -0.484375 -0.21875q-0.21875 -0.21875 -0.21875 -0.5q0 -0.359375 0.296875 -0.65625q0.296875 -0.28125 0.640625 -0.28125q0.171875 0 0.296875 0.078125q0.078125 0.046875 0.171875 0.265625q0.078125 0.21875 0.140625 0.28125q0.046875 0.046875 0.109375 0.046875q0.0625 0 0.203125 -0.09375q0.5 -0.296875 1.15625 -0.96875q0.875 -0.90625 1.296875 -1.46875l-0.515625 -5.765625q-0.125 -1.4375153 -0.375 -1.7500153q-0.25 -0.3125 -0.859375 -0.3125q-0.1875 0 -0.6875 0.0625l-0.078125 -0.34375l2.671875 -0.65625z" fill-rule="nonzero"/><path fill="#000000" fill-opacity="0.0" d="m206.3427 119.747604l55.662918 0l0 26.511139l-55.662918 0z" fill-rule="evenodd"/><path fill="#000000" d="m241.74083 138.4176q0.453125 0.484375 0.671875 0.953125q0.171875 0.328125 0.546875 1.71875l0.796875 -1.203125q0.328125 -0.4375 0.78125 -0.828125q0.453125 -0.390625 0.796875 -0.546875q0.21875 -0.09375 0.484375 -0.09375q0.390625 0 0.625 0.21875q0.234375 0.203125 0.234375 0.5q0 0.359375 -0.140625 0.484375q-0.25 0.21875 -0.578125 0.21875q-0.203125 0 -0.421875 -0.078125q-0.421875 -0.140625 -0.5625 -0.140625q-0.21875 0 -0.53125 0.25q-0.5625 0.46875 -1.34375 1.828125l0.75 3.140625q0.171875 0.71875 0.28125 0.859375q0.125 0.140625 0.25 0.140625q0.1875 0 0.4375 -0.203125q0.5 -0.421875 0.859375 -1.09375l0.328125 0.15625q-0.578125 1.078125 -1.46875 1.78125q-0.5 0.40625 -0.84375 0.40625q-0.515625 0 -0.8125 -0.578125q-0.1875 -0.34375 -0.796875 -3.0625q-1.40625 2.46875 -2.265625 3.1875q-0.5625 0.453125 -1.078125 0.453125q-0.359375 0 -0.671875 -0.265625q-0.21875 -0.203125 -0.21875 -0.53125q0 -0.3125 0.203125 -0.5q0.203125 -0.203125 0.5 -0.203125q0.28125 0 0.609375 0.28125q0.234375 0.21875 0.375 0.21875q0.109375 0 0.28125 -0.140625q0.421875 -0.359375 1.15625 -1.5q0.75 -1.15625 0.96875 -1.65625q-0.5625 -2.21875 -0.609375 -2.34375q-0.203125 -0.59375 -0.546875 -0.828125q-0.328125 -0.25 -0.984375 -0.25q-0.21875 0 -0.484375 0.015625l0 -0.328125l2.421875 -0.4375z" fill-rule="nonzero"/><path fill="#000000" d="m251.08386 145.26135q0.78125 0 1.3125 0.65625q0.53125 0.640625 0.53125 2.046875q0 1.203125 -0.40625 2.453125q-0.390625 1.25 -1.09375 2.171875q-0.578125 0.71875 -1.203125 1.046875q-0.359375 0.171875 -0.84375 0.171875q-0.796875 0 -1.328125 -0.640625q-0.53125 -0.65625 -0.53125 -2.0625q0 -1.390625 0.546875 -2.796875q0.625 -1.640625 1.59375 -2.484375q0.640625 -0.5625 1.421875 -0.5625zm0.015625 0.3125q-0.359375 0 -0.71875 0.28125q-0.359375 0.28125 -0.75 1.15625q-0.390625 0.875 -0.734375 2.25q-0.453125 1.796875 -0.453125 3.0625q0 0.640625 0.265625 0.953125q0.28125 0.3125 0.671875 0.3125q0.359375 0 0.625 -0.25q0.703125 -0.65625 1.203125 -2.234375q0.796875 -2.59375 0.796875 -4.21875q0 -0.671875 -0.28125 -0.984375q-0.265625 -0.328125 -0.625 -0.328125z" fill-rule="nonzero"/><path fill="#000000" fill-opacity="0.0" d="m206.3427 174.6922l55.662918 0l0 26.511124l-55.662918 0z" fill-rule="evenodd"/><path fill="#000000" d="m241.74083 193.3622q0.453125 0.484375 0.671875 0.953125q0.171875 0.328125 0.546875 1.71875l0.796875 -1.203125q0.328125 -0.4375 0.78125 -0.828125q0.453125 -0.390625 0.796875 -0.546875q0.21875 -0.09375 0.484375 -0.09375q0.390625 0 0.625 0.21875q0.234375 0.203125 0.234375 0.5q0 0.359375 -0.140625 0.484375q-0.25 0.21875 -0.578125 0.21875q-0.203125 0 -0.421875 -0.078125q-0.421875 -0.140625 -0.5625 -0.140625q-0.21875 0 -0.53125 0.25q-0.5625 0.46875 -1.34375 1.828125l0.75 3.140625q0.171875 0.71875 0.28125 0.859375q0.125 0.140625 0.25 0.140625q0.1875 0 0.4375 -0.203125q0.5 -0.421875 0.859375 -1.09375l0.328125 0.15625q-0.578125 1.078125 -1.46875 1.78125q-0.5 0.40625 -0.84375 0.40625q-0.515625 0 -0.8125 -0.578125q-0.1875 -0.34375 -0.796875 -3.0625q-1.40625 2.46875 -2.265625 3.1875q-0.5625 0.453125 -1.078125 0.453125q-0.359375 0 -0.671875 -0.265625q-0.21875 -0.203125 -0.21875 -0.53125q0 -0.3125 0.203125 -0.5q0.203125 -0.203125 0.5 -0.203125q0.28125 0 0.609375 0.28125q0.234375 0.21875 0.375 0.21875q0.109375 0 0.28125 -0.140625q0.421875 -0.359375 1.15625 -1.5q0.75 -1.15625 0.96875 -1.65625q-0.5625 -2.21875 -0.609375 -2.34375q-0.203125 -0.59375 -0.546875 -0.828125q-0.328125 -0.25 -0.984375 -0.25q-0.21875 0 -0.484375 0.015625l0 -0.328125l2.421875 -0.4375z" fill-rule="nonzero"/><path fill="#000000" d="m251.97449 200.20595l-1.953125 6.8125q-0.171875 0.59375 -0.171875 0.859375q0 0.234375 0.15625 0.359375q0.15625 0.109375 0.734375 0.15625l-0.0625 0.21875l-3.125 0l0.078125 -0.21875q0.5 -0.015625 0.65625 -0.078125q0.25 -0.109375 0.375 -0.296875q0.203125 -0.28125 0.421875 -1.0l1.40625 -4.890625q0.125 -0.4375 0.140625 -0.515625q0.015625 -0.125 0.015625 -0.234375q0 -0.21875 -0.125 -0.328125q-0.109375 -0.125 -0.3125 -0.125q-0.15625 0 -0.484375 0.078125l-0.078125 -0.21875l2.046875 -0.578125l0.28125 0z" fill-rule="nonzero"/><path fill="#000000" fill-opacity="0.0" d="m173.44554 235.40903l88.537125 0l0 26.511139l-88.537125 0z" fill-rule="evenodd"/><path fill="#000000" d="m191.5795 254.07903q0.3125 0.53125 0.421875 1.0q0.125 0.453125 0.25 1.7968903l0.390625 4.484375q0.546875 -0.65625 1.59375 -2.078125q0.5 -0.6875 1.234375 -1.875q0.4375 -0.734375 0.546875 -1.03125q0.046875 -0.140625 0.046875 -0.296875q0 -0.09376526 -0.0625 -0.15626526q-0.0625 -0.078125 -0.328125 -0.15625q-0.265625 -0.09375 -0.453125 -0.3125q-0.171875 -0.234375 -0.171875 -0.546875q0 -0.359375 0.21875 -0.59375q0.21875 -0.234375 0.546875 -0.234375q0.40625 0 0.6875 0.34375q0.28125 0.328125 0.28125 0.90625q0 0.71876526 -0.5 1.6562653q-0.484375 0.921875 -1.890625 2.84375q-1.40625 1.90625 -3.390625 4.15625q-1.375 1.5625 -2.046875 1.96875q-0.65625 0.40625 -1.140625 0.40625q-0.28125 0 -0.484375 -0.21875q-0.21875 -0.21875 -0.21875 -0.5q0 -0.359375 0.296875 -0.65625q0.296875 -0.28125 0.640625 -0.28125q0.171875 0 0.296875 0.078125q0.078125 0.046875 0.171875 0.265625q0.078125 0.21875 0.140625 0.28125q0.046875 0.046875 0.109375 0.046875q0.0625 0 0.203125 -0.09375q0.5 -0.296875 1.15625 -0.96875q0.875 -0.90625 1.296875 -1.46875l-0.515625 -5.765625q-0.125 -1.4375153 -0.375 -1.7500153q-0.25 -0.3125 -0.859375 -0.3125q-0.1875 0 -0.6875 0.0625l-0.078125 -0.34375l2.671875 -0.65625z" fill-rule="nonzero"/><path fill="#000000" d="m203.25066 255.71965l-0.578125 2.7500153l-0.515625 0l0.578125 -2.7500153l-2.75 0l0.109375 -0.515625l2.75 0l0.578125 -2.75l0.515625 0l-0.578125 2.75l2.75 0l-0.109375 0.515625l-2.75 0zm-0.953125 3.4218903q1.484375 0 2.84375 -1.125q1.265625 -1.03125 1.578125 -2.5156403q0.3125 -1.484375 -0.515625 -2.53125q-0.875 -1.109375 -2.359375 -1.109375q-1.484375 0 -2.828125 1.109375q-1.265625 1.046875 -1.578125 2.53125q-0.3125 1.4843903 0.515625 2.5156403q0.859375 1.125 2.34375 1.125zm3.234375 -0.828125q-1.640625 1.34375 -3.34375 1.34375q-1.703125 0 -2.6875 -1.265625q-0.9375 -1.1875 -0.578125 -2.8906403q0.359375 -1.703125 1.703125 -2.828125q1.625 -1.328125 3.328125 -1.328125q1.703125 0 2.703125 1.265625q0.9375 1.1875 0.578125 2.890625q-0.359375 1.7031403 -1.703125 2.8125153z" fill-rule="nonzero"/><path fill="#000000" d="m211.9069 254.29778l-0.15625 0.609375l-1.328125 0l-1.015625 3.9843903q-0.65625 2.625 -1.328125 4.0625q-0.953125 2.03125 -2.0625 2.8125q-0.84375 0.59375 -1.671875 0.59375q-0.546875 0 -0.9375 -0.328125q-0.28125 -0.234375 -0.28125 -0.59375q0 -0.296875 0.234375 -0.515625q0.234375 -0.203125 0.578125 -0.203125q0.234375 0 0.40625 0.15625q0.171875 0.15625 0.171875 0.34375q0 0.203125 -0.1875 0.375q-0.15625 0.125 -0.15625 0.203125q0 0.078125 0.0625 0.125q0.09375 0.0625 0.265625 0.0625q0.390625 0 0.828125 -0.25q0.421875 -0.25 0.765625 -0.734375q0.328125 -0.484375 0.625 -1.40625q0.140625 -0.375 0.6875 -2.515625l1.59375 -6.1718903l-1.59375 0l0.125 -0.609375q0.765625 0 1.0625 -0.09375q0.296875 -0.109375 0.546875 -0.40625q0.25 -0.296875 0.65625 -1.109375q0.53125 -1.09375 1.03125 -1.6875q0.671875 -0.8125 1.40625 -1.21875q0.75 -0.40625 1.40625 -0.40625q0.6875 0 1.109375 0.359375q0.421875 0.34375 0.421875 0.75q0 0.3125 -0.21875 0.53125q-0.203125 0.21875 -0.53125 0.21875q-0.28125 0 -0.46875 -0.15625q-0.171875 -0.171875 -0.171875 -0.390625q0 -0.140625 0.109375 -0.359375q0.125 -0.21875 0.125 -0.28125q0 -0.140625 -0.078125 -0.203125q-0.109375 -0.09375 -0.34375 -0.09375q-0.578125 0 -1.03125 0.375q-0.609375 0.484375 -1.09375 1.515625q-0.25 0.53125 -0.890625 2.65625l1.328125 0zm3.1520538 11.875015l-0.296875 0.140625q-1.09375 -2.0625 -1.5625 -3.640625q-0.359375 -1.25 -0.359375 -2.5q0 -2.9375 1.34375 -5.2656403q1.671875 -2.828125 5.40625 -5.53125l0.21875 0.3125q-1.6875 1.25 -2.75 2.796875q-1.328125 1.9375 -2.171875 4.6718903q-0.84375 2.734375 -0.84375 4.96875q0 1.71875 1.015625 4.046875zm5.947052 -12.093765q0.453125 0.484375 0.671875 0.953125q0.171875 0.328125 0.546875 1.7187653l0.796875 -1.2031403q0.328125 -0.4375 0.78125 -0.828125q0.453125 -0.390625 0.796875 -0.546875q0.21875 -0.09375 0.484375 -0.09375q0.390625 0 0.625 0.21875q0.234375 0.203125 0.234375 0.5q0 0.359375 -0.140625 0.484375q-0.25 0.21875 -0.578125 0.21875q-0.203125 0 -0.421875 -0.078125q-0.421875 -0.140625 -0.5625 -0.140625q-0.21875 0 -0.53125 0.25q-0.5625 0.46876526 -1.34375 1.8281403l0.75 3.140625q0.171875 0.71875 0.28125 0.859375q0.125 0.140625 0.25 0.140625q0.1875 0 0.4375 -0.203125q0.5 -0.421875 0.859375 -1.09375l0.328125 0.15625q-0.578125 1.078125 -1.46875 1.78125q-0.5 0.40625 -0.84375 0.40625q-0.515625 0 -0.8125 -0.578125q-0.1875 -0.34375 -0.796875 -3.0625q-1.40625 2.46875 -2.265625 3.1875q-0.5625 0.453125 -1.078125 0.453125q-0.359375 0 -0.671875 -0.265625q-0.21875 -0.203125 -0.21875 -0.53125q0 -0.3125 0.203125 -0.5q0.203125 -0.203125 0.5 -0.203125q0.28125 0 0.609375 0.28125q0.234375 0.21875 0.375 0.21875q0.109375 0 0.28125 -0.140625q0.421875 -0.359375 1.15625 -1.5q0.75 -1.15625 0.96875 -1.65625q-0.5625 -2.21875 -0.609375 -2.3437653q-0.203125 -0.59375 -0.546875 -0.828125q-0.328125 -0.25 -0.984375 -0.25q-0.21875 0 -0.484375 0.015625l0 -0.328125l2.421875 -0.4375z" fill-rule="nonzero"/><path fill="#000000" d="m230.34904 260.9228q0.78125 0 1.3125 0.65625q0.53125 0.640625 0.53125 2.046875q0 1.203125 -0.40625 2.453125q-0.390625 1.25 -1.09375 2.171875q-0.578125 0.71875 -1.203125 1.046875q-0.359375 0.171875 -0.84375 0.171875q-0.796875 0 -1.328125 -0.640625q-0.53125 -0.65625 -0.53125 -2.0625q0 -1.390625 0.546875 -2.796875q0.625 -1.640625 1.59375 -2.484375q0.640625 -0.5625 1.421875 -0.5625zm0.015625 0.3125q-0.359375 0 -0.71875 0.28125q-0.359375 0.28125 -0.75 1.15625q-0.390625 0.875 -0.734375 2.25q-0.453125 1.796875 -0.453125 3.0625q0 0.640625 0.265625 0.953125q0.28125 0.3125 0.671875 0.3125q0.359375 0 0.625 -0.25q0.703125 -0.65625 1.203125 -2.234375q0.796875 -2.59375 0.796875 -4.21875q0 -0.671875 -0.28125 -0.984375q-0.265625 -0.328125 -0.625 -0.328125z" fill-rule="nonzero"/><path fill="#000000" d="m235.50519 254.07903q0.453125 0.484375 0.671875 0.953125q0.171875 0.328125 0.546875 1.7187653l0.796875 -1.2031403q0.328125 -0.4375 0.78125 -0.828125q0.453125 -0.390625 0.796875 -0.546875q0.21875 -0.09375 0.484375 -0.09375q0.390625 0 0.625 0.21875q0.234375 0.203125 0.234375 0.5q0 0.359375 -0.140625 0.484375q-0.25 0.21875 -0.578125 0.21875q-0.203125 0 -0.421875 -0.078125q-0.421875 -0.140625 -0.5625 -0.140625q-0.21875 0 -0.53125 0.25q-0.5625 0.46876526 -1.34375 1.8281403l0.75 3.140625q0.171875 0.71875 0.28125 0.859375q0.125 0.140625 0.25 0.140625q0.1875 0 0.4375 -0.203125q0.5 -0.421875 0.859375 -1.09375l0.328125 0.15625q-0.578125 1.078125 -1.46875 1.78125q-0.5 0.40625 -0.84375 0.40625q-0.515625 0 -0.8125 -0.578125q-0.1875 -0.34375 -0.796875 -3.0625q-1.40625 2.46875 -2.265625 3.1875q-0.5625 0.453125 -1.078125 0.453125q-0.359375 0 -0.671875 -0.265625q-0.21875 -0.203125 -0.21875 -0.53125q0 -0.3125 0.203125 -0.5q0.203125 -0.203125 0.5 -0.203125q0.28125 0 0.609375 0.28125q0.234375 0.21875 0.375 0.21875q0.109375 0 0.28125 -0.140625q0.421875 -0.359375 1.15625 -1.5q0.75 -1.15625 0.96875 -1.65625q-0.5625 -2.21875 -0.609375 -2.3437653q-0.203125 -0.59375 -0.546875 -0.828125q-0.328125 -0.25 -0.984375 -0.25q-0.21875 0 -0.484375 0.015625l0 -0.328125l2.421875 -0.4375z" fill-rule="nonzero"/><path fill="#000000" d="m245.73885 260.9228l-1.953125 6.8125q-0.171875 0.59375 -0.171875 0.859375q0 0.234375 0.15625 0.359375q0.15625 0.109375 0.734375 0.15625l-0.0625 0.21875l-3.125 0l0.078125 -0.21875q0.5 -0.015625 0.65625 -0.078125q0.25 -0.109375 0.375 -0.296875q0.203125 -0.28125 0.421875 -1.0l1.40625 -4.890625q0.125 -0.4375 0.140625 -0.515625q0.015625 -0.125 0.015625 -0.234375q0 -0.21875 -0.125 -0.328125q-0.109375 -0.125 -0.3125 -0.125q-0.15625 0 -0.484375 0.078125l-0.078125 -0.21875l2.046875 -0.578125l0.28125 0z" fill-rule="nonzero"/><path fill="#000000" d="m249.48874 249.54778l0.3125 -0.171875q1.078125 2.0625 1.546875 3.640625q0.375 1.234375 0.375 2.5q0 2.9375153 -1.359375 5.2500153q-1.6875 2.859375 -5.40625 5.546875l-0.21875 -0.28125q1.6875 -1.25 2.75 -2.796875q1.328125 -1.921875 2.171875 -4.65625q0.859375 -2.7500153 0.859375 -4.9843903q0 -1.71875 -1.03125 -4.046875z" fill-rule="nonzero"/><path fill="#cfe2f3" d="m17.664042 142.70079l0 0c0 -17.612236 15.596003 -31.88977 34.83465 -31.88977c19.23864 0 34.83465 14.2775345 34.83465 31.88977c0 17.612228 -15.596008 31.889755 -34.83465 31.889755c-19.238644 0 -34.83465 -14.277527 -34.83465 -31.889755z" fill-rule="evenodd"/><path fill="#a5b4c2" d="m37.71009 133.16339c0 -1.83461 1.6245842 -3.3218536 3.6286087 -3.3218536c2.0040245 0 3.6286087 1.4872437 3.6286087 3.3218536c0 1.8345947 -1.6245842 3.3218384 -3.6286087 3.3218384c-2.0040245 0 -3.6286087 -1.4872437 -3.6286087 -3.3218384m22.319977 0c0 -1.83461 1.6245842 -3.3218536 3.6286087 -3.3218536c2.0040283 0 3.6286087 1.4872437 3.6286087 3.3218536c0 1.8345947 -1.6245804 3.3218384 -3.6286087 3.3218384c-2.0040245 0 -3.6286087 -1.4872437 -3.6286087 -3.3218384" fill-rule="evenodd"/><path fill="#000000" fill-opacity="0.0" d="m33.61808 156.60812q18.880608 11.870651 37.717117 0" fill-rule="evenodd"/><path fill="#000000" fill-opacity="0.0" d="m17.664042 142.70079l0 0c0 -17.612236 15.596003 -31.88977 34.83465 -31.88977c19.23864 0 34.83465 14.2775345 34.83465 31.88977c0 17.612228 -15.596008 31.889755 -34.83465 31.889755c-19.238644 0 -34.83465 -14.277527 -34.83465 -31.889755z" fill-rule="evenodd"/><path stroke="#000000" stroke-width="1.0" stroke-linejoin="round" stroke-linecap="butt" d="m37.71009 133.16339c0 -1.83461 1.6245842 -3.3218536 3.6286087 -3.3218536c2.0040245 0 3.6286087 1.4872437 3.6286087 3.3218536c0 1.8345947 -1.6245842 3.3218384 -3.6286087 3.3218384c-2.0040245 0 -3.6286087 -1.4872437 -3.6286087 -3.3218384m22.319977 0c0 -1.83461 1.6245842 -3.3218536 3.6286087 -3.3218536c2.0040283 0 3.6286087 1.4872437 3.6286087 3.3218536c0 1.8345947 -1.6245804 3.3218384 -3.6286087 3.3218384c-2.0040245 0 -3.6286087 -1.4872437 -3.6286087 -3.3218384" fill-rule="evenodd"/><path stroke="#000000" stroke-width="1.0" stroke-linejoin="round" stroke-linecap="butt" d="m33.61808 156.60812q18.880608 11.870651 37.717117 0" fill-rule="evenodd"/><path stroke="#000000" stroke-width="1.0" stroke-linejoin="round" stroke-linecap="butt" d="m17.664042 142.70079l0 0c0 -17.612236 15.596003 -31.88977 34.83465 -31.88977c19.23864 0 34.83465 14.2775345 34.83465 31.88977c0 17.612228 -15.596008 31.889755 -34.83465 31.889755c-19.238644 0 -34.83465 -14.277527 -34.83465 -31.889755z" fill-rule="evenodd"/><path fill="#000000" fill-opacity="0.0" d="m0 211.96063l105.98425 0" fill-rule="evenodd"/><path stroke="#000000" stroke-width="1.0" stroke-linejoin="round" stroke-linecap="butt" d="m0 211.96063l105.98425 0" fill-rule="evenodd"/><path fill="#000000" fill-opacity="0.0" d="m52.498688 211.96063l-41.19685 85.38583" fill-rule="evenodd"/><path stroke="#000000" stroke-width="1.0" stroke-linejoin="round" stroke-linecap="butt" d="m52.498688 211.96063l-41.19685 85.38583" fill-rule="evenodd"/><path fill="#000000" fill-opacity="0.0" d="m52.498688 211.96063l41.196854 85.38583" fill-rule="evenodd"/><path stroke="#000000" stroke-width="1.0" stroke-linejoin="round" stroke-linecap="butt" d="m52.498688 211.96063l41.196854 85.38583" fill-rule="evenodd"/><path fill="#000000" fill-opacity="0.0" d="m52.498688 174.59055l0.50393677 38.362213" fill-rule="evenodd"/><path stroke="#000000" stroke-width="1.0" stroke-linejoin="round" stroke-linecap="butt" d="m52.498688 174.59055l0.50393677 38.362213" fill-rule="evenodd"/><path fill="#cfe2f3" d="m415.2047 142.70079l0 0c0 -17.612236 15.596008 -31.88977 34.834656 -31.88977c19.238647 0 34.834656 14.2775345 34.834656 31.88977c0 17.612228 -15.596008 31.889755 -34.834656 31.889755c-19.238647 0 -34.834656 -14.277527 -34.834656 -31.889755z" fill-rule="evenodd"/><path fill="#a5b4c2" d="m435.25076 133.16339c0 -1.83461 1.6246033 -3.3218536 3.6286316 -3.3218536c2.0039978 0 3.628601 1.4872437 3.628601 3.3218536c0 1.8345947 -1.6246033 3.3218384 -3.628601 3.3218384c-2.0040283 0 -3.6286316 -1.4872437 -3.6286316 -3.3218384m22.319977 0c0 -1.83461 1.6246033 -3.3218536 3.6286316 -3.3218536c2.0039978 0 3.628601 1.4872437 3.628601 3.3218536c0 1.8345947 -1.6246033 3.3218384 -3.628601 3.3218384c-2.0040283 0 -3.6286316 -1.4872437 -3.6286316 -3.3218384" fill-rule="evenodd"/><path fill="#000000" fill-opacity="0.0" d="m431.15875 156.60812q18.880615 11.870651 37.717133 0" fill-rule="evenodd"/><path fill="#000000" fill-opacity="0.0" d="m415.2047 142.70079l0 0c0 -17.612236 15.596008 -31.88977 34.834656 -31.88977c19.238647 0 34.834656 14.2775345 34.834656 31.88977c0 17.612228 -15.596008 31.889755 -34.834656 31.889755c-19.238647 0 -34.834656 -14.277527 -34.834656 -31.889755z" fill-rule="evenodd"/><path stroke="#000000" stroke-width="1.0" stroke-linejoin="round" stroke-linecap="butt" d="m435.25076 133.16339c0 -1.83461 1.6246033 -3.3218536 3.6286316 -3.3218536c2.0039978 0 3.628601 1.4872437 3.628601 3.3218536c0 1.8345947 -1.6246033 3.3218384 -3.628601 3.3218384c-2.0040283 0 -3.6286316 -1.4872437 -3.6286316 -3.3218384m22.319977 0c0 -1.83461 1.6246033 -3.3218536 3.6286316 -3.3218536c2.0039978 0 3.628601 1.4872437 3.628601 3.3218536c0 1.8345947 -1.6246033 3.3218384 -3.628601 3.3218384c-2.0040283 0 -3.6286316 -1.4872437 -3.6286316 -3.3218384" fill-rule="evenodd"/><path stroke="#000000" stroke-width="1.0" stroke-linejoin="round" stroke-linecap="butt" d="m431.15875 156.60812q18.880615 11.870651 37.717133 0" fill-rule="evenodd"/><path stroke="#000000" stroke-width="1.0" stroke-linejoin="round" stroke-linecap="butt" d="m415.2047 142.70079l0 0c0 -17.612236 15.596008 -31.88977 34.834656 -31.88977c19.238647 0 34.834656 14.2775345 34.834656 31.88977c0 17.612228 -15.596008 31.889755 -34.834656 31.889755c-19.238647 0 -34.834656 -14.277527 -34.834656 -31.889755z" fill-rule="evenodd"/><path fill="#000000" fill-opacity="0.0" d="m397.54068 211.96063l105.98425 0" fill-rule="evenodd"/><path stroke="#000000" stroke-width="1.0" stroke-linejoin="round" stroke-linecap="butt" d="m397.54068 211.96063l105.98425 0" fill-rule="evenodd"/><path fill="#000000" fill-opacity="0.0" d="m450.03937 211.96063l-41.19684 85.38583" fill-rule="evenodd"/><path stroke="#000000" stroke-width="1.0" stroke-linejoin="round" stroke-linecap="butt" d="m450.03937 211.96063l-41.19684 85.38583" fill-rule="evenodd"/><path fill="#000000" fill-opacity="0.0" d="m450.03937 211.96063l41.19684 85.38583" fill-rule="evenodd"/><path stroke="#000000" stroke-width="1.0" stroke-linejoin="round" stroke-linecap="butt" d="m450.03937 211.96063l41.19684 85.38583" fill-rule="evenodd"/><path fill="#000000" fill-opacity="0.0" d="m450.03937 174.59055l0.50393677 38.362213" fill-rule="evenodd"/><path stroke="#000000" stroke-width="1.0" stroke-linejoin="round" stroke-linecap="butt" d="m450.03937 174.59055l0.50393677 38.362213" fill-rule="evenodd"/><path fill="#cfe2f3" d="m138.3622 0l37.94226 0l0 0l56.91339 0l132.7979 0l0 46.942257l0 0l0 20.118107l0 13.412079l-132.7979 0l-72.2838 22.564468l15.370407 -22.564468l-37.94226 0l0 -13.412079l0 -20.118107l0 0z" fill-rule="evenodd"/><path stroke="#000000" stroke-width="1.0" stroke-linejoin="round" stroke-linecap="butt" d="m138.3622 0l37.94226 0l0 0l56.91339 0l132.7979 0l0 46.942257l0 0l0 20.118107l0 13.412079l-132.7979 0l-72.2838 22.564468l15.370407 -22.564468l-37.94226 0l0 -13.412079l0 -20.118107l0 0z" fill-rule="evenodd"/><path fill="#000000" d="m164.01845 36.46622l0 -1.5l-4.90625 0l0 1.828125l-1.75 0q0.078125 -1.0 0.078125 -4.0q0 -3.0 -0.078125 -4.328125l8.328125 0q-0.078125 1.078125 -0.078125 3.828125q0 2.75 0.078125 4.171875l-1.671875 0zm-1.5 -18.75q-0.328125 0.421875 -0.578125 1.0q1.078125 2.34375 2.578125 3.921875q1.5 1.578125 3.5 2.5q-0.75 0.65625 -1.25 1.5q-1.328125 -0.75 -2.15625 -1.59375l0 1.421875q-0.921875 -0.078125 -1.671875 -0.078125l-2.671875 0q-1.0 0 -2.0 0.078125l0 -1.171875q-0.578125 0.921875 -1.734375 2.09375q-0.59375 -0.84375 -1.59375 -1.421875q1.09375 -0.671875 2.0 -1.78125q0.921875 -1.125 1.546875 -2.203125q0.625 -1.09375 1.078125 -2.296875q0.453125 -1.21875 0.796875 -2.546875q1.078125 0.328125 2.15625 0.578125zm-8.828125 0.5q-0.5 0.421875 -1.328125 2.546875q-0.828125 2.125 -1.671875 3.53125l2.421875 -0.078125q0.671875 -1.078125 1.171875 -2.828125q0.90625 0.421875 1.90625 0.671875q-0.5 0.5 -1.0 1.375q-0.5 0.859375 -1.546875 2.953125q-1.03125 2.078125 -1.609375 2.90625q2.0 -0.25 3.578125 -0.5q-0.328125 1.0 -0.421875 1.75q-1.0 0 -2.375 0.21875q-1.375 0.203125 -2.78125 0.53125q-0.34375 -1.0 -0.671875 -1.90625q0.828125 0 1.578125 -1.046875q0.75 -1.046875 1.59375 -2.703125q-0.84375 0 -1.765625 0.125q-0.90625 0.125 -1.65625 0.375q-0.25 -0.75 -0.671875 -1.671875q0.671875 -0.328125 1.546875 -1.78125q0.875 -1.46875 1.796875 -5.21875q1.0 0.421875 1.90625 0.75zm10.328125 15.421875l0 -3.671875l-4.90625 0l0 3.671875l4.90625 0zm0.5 -8.671875q-1.40625 -1.25 -2.125 -2.40625q-0.703125 -1.171875 -1.203125 -2.34375q-0.671875 1.25 -1.25 2.421875q-0.578125 1.171875 -1.421875 2.328125q0.75 0.078125 1.75 0.078125l2.5 0q0.84375 -0.078125 1.75 -0.078125zm-15.578125 8.828125q1.421875 -0.078125 3.171875 -0.453125q1.75 -0.375 3.578125 -0.875q-0.15625 0.828125 -0.078125 1.578125q-1.078125 0.25 -3.0 0.796875q-1.921875 0.546875 -3.078125 1.046875q-0.25 -1.171875 -0.59375 -2.09375z" fill-rule="nonzero"/><path fill="#000000" d="m174.1122 36.52872l-1.640625 0l0 -9.9375q-1.3125 1.890625 -1.734375 2.296875l-1.140625 -1.46875q3.109375 -3.78125 4.09375 -9.4375l1.640625 0.578125q0.5 0.234375 -0.078125 0.40625q-0.40625 2.296875 -1.3125 4.34375l0.328125 0.078125q0.25 0.25 -0.15625 0.5l0 12.640625zm5.078125 -9.6875q0.734375 0.25 -0.078125 0.578125q-0.734375 4.171875 -2.046875 6.46875l-1.484375 -0.734375q1.390625 -2.375 2.046875 -6.640625l1.5625 0.328125zm-0.078125 -5.65625l7.296875 0l0.25 -0.5l1.796875 1.234375l-0.40625 0.40625l-1.46875 3.6875l-1.734375 -0.5625l1.15625 -2.71875l-3.28125 0l0 12.390625q0 1.3125 -1.15625 1.3125l-2.203125 0l-0.5 -1.71875l1.890625 0q0.328125 0 0.328125 -0.328125l0 -11.65625l-2.546875 0q-1.0625 2.140625 -2.296875 3.53125l-1.234375 -1.0625q2.21875 -2.375 3.28125 -6.96875l1.5625 0.15625q0.828125 0.171875 -0.078125 0.578125l-0.65625 2.21875zm6.71875 5.15625q1.8125 3.78125 2.546875 6.40625l-1.796875 0.578125q-0.65625 -2.71875 -2.21875 -6.484375l1.46875 -0.5z" fill-rule="nonzero"/><path fill="#000000" d="m199.19032 23.638096q2.828125 2.15625 4.0 3.40625q1.15625 -1.90625 1.65625 -4.15625q-6.328125 0 -7.828125 0.078125l0 -1.5q1.5 0.09375 2.34375 0.09375l6.65625 0q1.25 0 2.75 -0.09375l0 1.5q-1.671875 -0.078125 -2.171875 -0.078125q-0.90625 3.25 -2.078125 5.328125l1.75 1.75q0.921875 0.921875 2.171875 2.25q-0.921875 0.578125 -1.5 1.328125q-0.921875 -1.15625 -1.640625 -1.953125q-0.703125 -0.796875 -1.953125 -2.046875q-1.078125 1.34375 -2.25 2.171875q-1.15625 0.828125 -2.984375 1.921875q-0.25 -0.59375 -1.25 -1.5q1.5 -0.421875 2.984375 -1.5q1.5 -1.09375 2.34375 -2.171875q-0.921875 -1.078125 -4.171875 -3.671875l1.171875 -1.15625zm-8.5 11.328125q2.5 -1.671875 3.328125 -2.0l0 -6.578125q-1.40625 0 -2.75 0.15625l0 -1.40625l4.421875 0q-0.078125 1.5 -0.078125 2.5l0 5.0q1.90625 2.15625 6.578125 2.15625q4.75 0 7.5 -0.40625q-0.59375 0.90625 -0.75 2.078125q-3.171875 0 -5.390625 -0.046875q-2.203125 -0.03125 -3.65625 -0.25q-1.453125 -0.203125 -2.328125 -0.578125q-0.875 -0.375 -1.875 -1.125q-1.0 -0.75 -2.09375 0.25q-1.078125 1.0 -1.65625 1.75q-0.75 -1.078125 -1.25 -1.5zm2.328125 -16.90625q2.25 2.75 2.75 3.75q-0.828125 0.5 -1.40625 1.0q-1.25 -2.171875 -2.75 -3.671875q0.65625 -0.421875 1.40625 -1.078125zm9.75 3.078125q-0.421875 -0.828125 -2.5 -2.828125q0.75 -0.5 1.171875 -1.0q2.15625 2.25 2.578125 2.75q-0.5 0.40625 -1.25 1.078125z" fill-rule="nonzero"/><path fill="#000000" d="m221.26845 20.606846q-3.1875 4.515625 -8.03125 6.484375l-0.90625 -1.5625q5.5 -2.46875 8.453125 -7.390625l1.390625 0.421875q0.984375 0.328125 0.078125 0.734375q2.21875 3.359375 8.375 5.828125l-0.984375 1.640625q-5.65625 -2.296875 -8.375 -6.15625zm0.984375 3.203125q0.828125 0.15625 0.09375 0.65625l0 11.40625l-1.890625 0l0 -12.0625l1.796875 0z" fill-rule="nonzero"/><path fill="#000000" d="m243.6747 19.450596l2.03125 0l0 8.8125q0 2.3125 -0.53125 3.671875q-0.515625 1.34375 -1.875 2.203125q-1.359375 0.84375 -3.5625 0.84375q-2.140625 0 -3.515625 -0.734375q-1.359375 -0.75 -1.953125 -2.140625q-0.578125 -1.40625 -0.578125 -3.84375l0 -8.8125l2.03125 0l0 8.8125q0 1.984375 0.359375 2.9375q0.375 0.9375 1.265625 1.453125q0.90625 0.5 2.21875 0.5q2.21875 0 3.15625 -1.0q0.953125 -1.015625 0.953125 -3.890625l0 -8.8125zm5.6056213 15.265625l0 -9.609375l-1.65625 0l0 -1.453125l1.65625 0l0 -1.171875q0 -1.109375 0.1875 -1.65625q0.28125 -0.734375 0.953125 -1.1875q0.6875 -0.453125 1.921875 -0.453125q0.78125 0 1.75 0.1875l-0.28125 1.640625q-0.59375 -0.109375 -1.109375 -0.109375q-0.859375 0 -1.21875 0.375q-0.34375 0.359375 -0.34375 1.359375l0 1.015625l2.15625 0l0 1.453125l-2.15625 0l0 9.609375l-1.859375 0z" fill-rule="nonzero"/><path fill="#000000" d="m255.39346 32.575596l1.890625 0l0 1.8125l-0.984375 2.21875l-0.90625 0l0.828125 -2.21875l-0.828125 0l0 -1.8125z" fill-rule="nonzero"/><path fill="#000000" d="m276.21378 29.888096q0 -1.421875 -0.09375 -3.34375l9.671875 0q-0.09375 1.421875 -0.09375 2.84375l0 6.0q0 0.75 -0.546875 0.953125q-0.53125 0.203125 -1.859375 0.453125q-0.171875 -0.75 -0.671875 -1.5q1.5 0 1.5 -0.5l0 -1.65625l-6.328125 0l0 3.5l-1.671875 0q0.09375 -1.671875 0.09375 -3.25l0 -3.5zm-1.75 -5.671875q1.328125 0.078125 5.65625 0.078125l0 -1.578125q-3.15625 0 -4.5 0.09375l0 -1.25q1.34375 0.078125 4.5 0.078125l0 -1.25q-3.578125 0 -5.0 0.078125l0 -1.328125q1.5 0.078125 5.0 0.078125q0 -0.90625 -0.078125 -1.75l1.75 0q-0.09375 0.921875 -0.09375 1.75q3.921875 0 5.25 -0.078125l0 1.328125q-1.328125 -0.078125 -5.25 -0.078125l0 1.25q3.671875 0 4.75 -0.078125l0 1.25q-1.25 -0.09375 -4.75 -0.09375l0 1.578125q4.75 0 6.0 -0.078125l0 1.328125q-1.078125 -0.078125 -6.5 -0.078125q-5.328125 0 -6.734375 0.078125l0 -1.328125zm0.828125 7.75q-1.078125 0.828125 -2.25 1.875q-1.171875 1.046875 -1.921875 1.875q-0.578125 -0.921875 -1.15625 -1.5q0.828125 -0.578125 0.828125 -1.578125l0 -7.09375q-1.25 0 -2.578125 0.09375l0 -1.5q1.078125 0.078125 1.75 0.078125l2.40625 0q-0.078125 1.328125 -0.078125 3.0l0 5.421875q1.328125 -1.171875 2.078125 -2.09375q0.34375 0.84375 0.921875 1.421875zm8.828125 0l0 -1.578125l-6.328125 0l0 1.578125l6.328125 0zm0 -2.75l0 -1.421875l-6.328125 0l0 1.421875l6.328125 0zm-11.578125 -7.0q-1.25 -1.828125 -2.828125 -3.25q0.578125 -0.40625 1.078125 -0.90625q1.921875 1.65625 3.0 3.078125q-0.75 0.671875 -1.25 1.078125z" fill-rule="nonzero"/><path fill="#000000" d="m297.4794 23.231846q0.734375 -1.640625 1.3125 -3.53125l1.640625 0.578125q0.578125 0.25 -0.15625 0.484375q-0.75 2.390625 -1.234375 3.125l-1.5625 -0.65625zm-5.65625 0.484375q-0.734375 -1.875 -1.484375 -3.03125l1.484375 -0.734375q0.90625 1.234375 1.5625 3.109375l-1.5625 0.65625zm11.890625 -3.515625q0.65625 0.078125 0.078125 0.484375l0 11.328125l-1.640625 0l0 -11.8125l1.5625 0zm3.6875 -1.484375q0.65625 0.078125 0.09375 0.5l0 15.828125q0 1.15625 -1.078125 1.15625l-2.203125 0l-0.328125 -1.5625l1.640625 0q0.328125 0 0.328125 -0.328125l0 -15.59375l1.546875 0zm-7.125 7.546875l-3.9375 0l0 2.625l4.671875 0l0 1.5625l-4.671875 0l0 5.828125l-1.640625 0l0 -5.828125l-4.84375 0l0 -1.5625l4.84375 0l0 -2.625l-4.03125 0l0 -1.5625l4.03125 0l0 -6.390625l1.546875 0q0.65625 0.078125 0.09375 0.484375l0 5.90625l3.9375 0l0 1.5625zm17.875 -2.703125q0.828125 -1.96875 1.234375 -3.78125l1.46875 0.421875q0.328125 0.234375 -0.15625 0.40625q-0.5 1.71875 -1.234375 3.4375l-1.3125 -0.484375zm11.0 -3.453125q0.078125 0.578125 -0.65625 0.171875q-2.71875 0.578125 -5.5 0.90625l0 3.515625l6.5625 0l0 1.5625l-2.21875 0l0 10.015625l-1.640625 0l0 -10.015625l-2.703125 0l0 3.53125q0 4.1875 -2.953125 6.640625l-1.234375 -1.390625l0.734375 -0.65625l-6.390625 0l0 1.5625l-1.640625 0l0 -17.0625l1.5625 0q0.65625 0.078125 0.078125 0.484375l0 5.421875l3.03125 0l0 -6.234375l1.3125 0q0.65625 0.078125 0.078125 0.484375l0 5.75l3.125 0l0 1.3125l-3.125 0l0 0.65625q1.8125 0.984375 2.875 1.875l-0.984375 1.5625q-0.734375 -0.8125 -1.890625 -1.890625l0 3.78125l-1.390625 0l0 -3.453125q-0.90625 1.5625 -1.96875 2.546875l-0.90625 -1.3125q1.734375 -1.5625 2.796875 -3.765625l-2.953125 0l0 6.71875l6.96875 0l0 0.984375q1.234375 -1.390625 1.234375 -4.09375l0 -10.34375l1.5625 0.40625q2.78125 -0.328125 4.75 -1.46875l1.484375 1.796875zm-14.859375 4.03125q-0.40625 -2.46875 -0.890625 -3.609375l1.390625 -0.5q0.65625 1.640625 0.90625 3.609375l-1.40625 0.5zm29.296875 2.703125q1.71875 0.8125 4.09375 3.28125l-1.3125 1.46875q-2.453125 -2.453125 -3.765625 -3.359375l0 3.78125q0 1.140625 -1.15625 1.140625l-2.625 0l-0.25 -1.5625l2.0625 0q0.328125 0 0.328125 -0.328125l0 -8.203125l-1.5625 0l-0.40625 0.75l-1.640625 -0.578125l1.3125 -3.03125l-6.890625 0l0 -1.5625l18.703125 0l0 1.5625l-10.015625 0l-0.578125 1.546875l2.71875 0l0 6.234375l0.984375 -1.140625zm4.265625 -4.671875l1.546875 0q0.65625 0.078125 0.09375 0.484375l0 13.546875l-1.640625 0l0 -0.75l-13.375 0l0 0.90625l-1.640625 0l0 -14.1875l1.5625 0q0.65625 0.078125 0.078125 0.484375l0 11.234375l13.375 0l0 -11.71875zm-0.75 1.3125q0.328125 0.40625 -0.328125 0.328125q-1.140625 1.3125 -2.703125 2.53125l-1.140625 -1.21875q1.46875 -1.078125 2.859375 -2.796875l1.3125 1.15625zm-10.90625 0q1.890625 0.984375 3.203125 2.046875l-0.90625 1.5625q-1.390625 -1.078125 -3.109375 -2.0625l0.8125 -1.546875zm4.34375 4.921875q-1.140625 1.0625 -4.09375 2.703125q-0.171875 0.578125 -0.5 0.25l-0.984375 -1.640625q1.96875 -0.65625 4.765625 -2.71875l0.8125 1.40625z" fill-rule="nonzero"/><path fill="#000000" d="m162.62782 56.200596q1.140625 -2.21875 1.390625 -6.71875l-2.796875 0q0.25 4.5 1.40625 6.71875zm3.03125 -6.71875q-0.171875 5.078125 -1.96875 8.203125q1.3125 1.640625 3.6875 2.859375l-1.0625 1.8125q-2.625 -1.71875 -3.6875 -3.28125q-1.890625 2.140625 -5.828125 3.6875l-0.828125 -1.640625q4.265625 -1.71875 5.671875 -3.53125q-1.40625 -2.703125 -1.5625 -5.40625q-0.5 1.234375 -0.984375 1.890625l-1.390625 -1.078125q2.453125 -3.609375 2.953125 -8.9375l1.71875 0.40625q0.484375 0.328125 -0.25 0.5q-0.25 1.46875 -0.65625 2.953125l5.578125 0l0 1.5625l-1.390625 0zm-7.625 -3.9375q-0.5 1.21875 -1.15625 2.046875l-1.3125 -0.734375q0.65625 -1.078125 1.234375 -2.46875l1.46875 0.734375q0.328125 0.328125 -0.234375 0.421875zm-5.25 11.5625q1.140625 0.328125 2.046875 0.734375q0.65625 -0.734375 1.0625 -2.21875l-2.375 0q-0.328125 0.75 -0.734375 1.484375zm-1.15625 2.046875l-1.3125 -0.734375q0.828125 -1.234375 1.640625 -2.796875l-3.109375 0l0 -1.3125l3.609375 0q0.484375 -1.0625 0.734375 -1.796875l1.5625 0.40625q0.328125 0.328125 -0.25 0.40625l-0.5 0.984375l4.6875 0l0 1.3125l-1.234375 0q-0.40625 1.640625 -1.234375 2.796875q0.734375 0.328125 1.5625 0.8125l-0.734375 1.3125q-0.90625 -0.5625 -1.640625 -0.890625q-2.140625 2.125 -5.75 2.625l-0.578125 -1.484375q3.203125 -0.328125 4.921875 -1.796875q-0.890625 -0.421875 -1.796875 -0.75l-0.578125 0.90625zm1.640625 -15.421875l1.3125 0q0.65625 0.078125 0.078125 0.5l0 3.515625l4.1875 0l0 1.3125l-3.4375 0q0.890625 1.078125 2.78125 2.0625l-0.90625 1.390625q-1.390625 -0.828125 -2.625 -2.296875l0 1.96875l-1.390625 0l0 -1.5625q-1.3125 1.640625 -3.609375 2.953125l-1.0625 -1.3125q2.546875 -1.3125 4.1875 -3.203125l-3.78125 0l0 -1.3125l4.265625 0l0 -4.015625zm-2.296875 3.78125q-0.578125 -1.234375 -1.46875 -2.140625l1.3125 -0.8125q0.984375 0.984375 1.46875 2.046875l-1.3125 0.90625z" fill-rule="nonzero"/><path fill="#000000" d="m170.22157 60.71622l0 -9.609375l-1.65625 0l0 -1.453125l1.65625 0l0 -1.171875q0 -1.109375 0.1875 -1.65625q0.28125 -0.734375 0.953125 -1.1875q0.6875 -0.453125 1.921875 -0.453125q0.78125 0 1.75 0.1875l-0.28125 1.640625q-0.59375 -0.109375 -1.109375 -0.109375q-0.859375 0 -1.21875 0.375q-0.34375 0.359375 -0.34375 1.359375l0 1.015625l2.15625 0l0 1.453125l-2.15625 0l0 9.609375l-1.859375 0z" fill-rule="nonzero"/><path fill="#000000" d="m187.16284 49.05997q-0.8125 2.296875 -2.625 4.359375l-1.21875 -1.484375q2.78125 -2.78125 3.515625 -7.953125l1.734375 0.578125q0.734375 0.328125 -0.09375 0.484375q-0.234375 1.15625 -0.65625 2.46875l5.90625 0l-0.40625 11.15625q-0.078125 3.28125 -2.625 3.28125l-2.296875 0l-0.25 -1.5625l2.140625 0q1.140625 0 1.234375 -1.484375l0.40625 -9.84375l-4.765625 0zm0.984375 7.640625q-1.140625 -1.640625 -2.53125 -2.953125l1.390625 -1.484375q1.640625 1.484375 2.625 2.875l-1.484375 1.5625zm-9.671875 -9.1875q0.484375 -1.5625 0.90625 -3.609375l1.96875 0.734375q0.328125 0.328125 -0.25 0.40625q-0.25 1.0625 -0.90625 2.46875l3.03125 0l0 13.53125l-1.640625 0l0 -0.984375l-3.609375 0l0 1.640625l-1.640625 0l0 -14.1875l2.140625 0zm3.109375 1.546875l-3.609375 0l0 3.609375l3.609375 0l0 -3.609375zm0 5.171875l-3.609375 0l0 4.265625l3.609375 0l0 -4.265625zm24.453125 -5.984375l2.21875 0l0 -4.265625l1.546875 0q0.65625 0.078125 0.09375 0.484375l0 3.78125l4.421875 0l0 1.5625l-4.421875 0l0 3.9375l4.171875 0l0 1.546875l-4.171875 0l0 4.84375l5.40625 0l0 1.5625l-12.546875 0l0 -1.5625l5.5 0l0 -4.84375l-4.03125 0l0 -1.546875l4.03125 0l0 -3.9375l-2.71875 0q-0.5625 1.640625 -1.796875 3.28125l-1.390625 -1.078125q2.125 -2.78125 2.78125 -6.71875l1.5625 0.328125q0.65625 0.25 0 0.484375l-0.65625 2.140625zm-6.96875 -4.515625l1.546875 0q0.65625 0.078125 0.09375 0.5l0 18.203125l-1.640625 0l0 -18.703125zm3.109375 3.359375q0.734375 0.984375 1.234375 2.21875l-1.3125 0.90625q-0.578125 -1.390625 -1.15625 -2.296875l1.234375 -0.828125zm-3.609375 0.90625q0.578125 0.171875 0 0.5q-0.15625 2.625 -0.734375 4.921875l-1.5625 -0.5q0.65625 -2.046875 0.734375 -5.171875l1.5625 0.25z" fill-rule="nonzero"/><path fill="#000000" d="m221.95972 48.388096q1.40625 0.078125 2.828125 0.078125l2.828125 0l0 -2.15625q-5.078125 0.25 -6.078125 0.25l0 1.90625q-0.078125 3.828125 -0.171875 5.703125q-0.078125 1.875 -0.453125 3.75q-0.375 1.875 -1.703125 4.296875q-0.75 -0.5 -1.921875 -0.75q1.328125 -1.75 1.828125 -3.625q0.5 -1.875 0.625 -4.875q0.125 -3.0 0.125 -4.65625q0 -1.75 -0.078125 -3.09375q2.421875 0 4.625 -0.078125q2.203125 -0.078125 4.859375 -0.328125q2.671875 -0.25 4.59375 -1.0q0.171875 0.828125 1.078125 1.90625q-1.0 0 -2.296875 0.125q-1.28125 0.125 -3.453125 0.296875l0 2.328125l4.171875 0q1.171875 0 2.578125 -0.078125l0 1.578125q-1.25 -0.078125 -2.578125 -0.078125l-4.171875 0l0 2.15625l5.171875 0q-0.078125 1.421875 -0.078125 2.84375q0 1.40625 0.078125 2.828125l-1.75 0l0 -4.328125l-7.75 0l0 4.828125l-1.65625 0q0.078125 -1.578125 0.078125 -3.171875q0 -1.578125 -0.078125 -3.0l4.40625 0l0 -2.15625l-2.828125 0q-1.421875 0 -2.828125 0.078125l0 -1.578125zm7.65625 6.328125q-0.328125 1.328125 -0.546875 2.953125q-0.203125 1.625 -1.90625 2.96875q-1.703125 1.328125 -4.625 2.25q-0.171875 -0.671875 -1.171875 -1.34375q2.34375 -0.578125 3.71875 -1.328125q1.375 -0.75 1.953125 -1.78125q0.578125 -1.046875 0.65625 -2.21875q0.09375 -1.171875 0 -1.75q1.0 0.078125 1.921875 0.25zm0.828125 3.171875q1.34375 0.65625 2.96875 1.578125q1.625 0.921875 2.875 1.828125q-0.5 0.421875 -1.09375 1.34375q-1.828125 -1.5 -5.578125 -3.34375q0.5 -0.828125 0.828125 -1.40625z" fill-rule="nonzero"/><path fill="#cfe2f3" d="m469.56372 44.707382c-0.65841675 -5.130295 1.5032654 -10.208984 5.5677795 -13.081005c4.064514 -2.8720226 9.319061 -3.0336895 13.533936 -0.41640282l0 0c1.4929504 -2.9831753 4.225586 -5.042862 7.371277 -5.556017c3.1457214 -0.5131531 6.3349915 0.58049965 8.603119 2.950138l0 0c1.2718506 -2.704691 3.7691956 -4.521904 6.6058044 -4.8067837c2.8365784 -0.28487778 5.6110535 1.0028954 7.3387756 3.4063435l0 0c2.2978516 -2.8668003 5.9536743 -4.0738297 9.385681 -3.0988026c3.4320068 0.9750252 6.0237427 3.9569855 6.6537476 7.6555786l0 0c2.8151245 0.81419945 5.160034 2.8839703 6.428894 5.6745586c1.2689209 2.7905884 1.3372803 6.028248 0.1875 8.876476l0 0c2.7722778 3.8254738 3.4207764 8.922924 1.7036133 13.390041c-1.7172241 4.4671173 -5.5421753 7.632759 -10.047485 8.315544c-0.03173828 4.1926956 -2.2002563 8.039848 -5.669739 10.058586c-3.4694214 2.0187302 -7.698059 1.8937988 -11.055847 -0.3266449c-1.4302979 5.0214615 -5.4561462 8.716209 -10.338196 9.487953c-4.8820496 0.7717514 -9.745117 -1.5178528 -12.488129 -5.8796005c-3.3623352 2.149887 -7.3969116 2.7692108 -11.1935425 1.7182617c-3.7966309 -1.0509567 -7.0355225 -3.6836548 -8.986053 -7.304199l0 0c-3.435852 0.4263382 -6.7578735 -1.4611816 -8.317352 -4.7257996c-1.5594788 -3.264618 -1.0244446 -7.2113724 1.3395691 -9.881523l0 0c-3.065033 -1.9127731 -4.6290283 -5.7083664 -3.8763733 -9.407524c0.752655 -3.699154 3.6513672 -6.4636307 7.184601 -6.8518524z" fill-rule="evenodd"/><path fill="#cfe2f3" d="m487.84805 95.30315c0 0.9784622 -0.7932129 1.7716599 -1.7716675 1.7716599c-0.9784546 0 -1.771637 -0.79319763 -1.771637 -1.7716599c0 -0.9784546 0.7931824 -1.7716522 1.771637 -1.7716522c0.9784546 0 1.7716675 0.79319763 1.7716675 1.7716522z" fill-rule="evenodd"/><path fill="#cfe2f3" d="m490.5258 93.18603c0 1.9569168 -1.5863953 3.543312 -3.543335 3.543312c-1.9569092 0 -3.5433044 -1.5863953 -3.5433044 -3.543312c0 -1.9569092 1.5863953 -3.5433044 3.5433044 -3.5433044c1.9569397 0 3.543335 1.5863953 3.543335 3.5433044z" fill-rule="evenodd"/><path fill="#cfe2f3" d="m494.59766 87.8114l0 0c0 2.9353714 -2.3796082 5.3149567 -5.314972 5.3149567c-2.9353638 0 -5.314972 -2.3795853 -5.314972 -5.3149567c0 -2.9353714 2.3796082 -5.3149643 5.314972 -5.3149643c2.9353638 0 5.314972 2.379593 5.314972 5.3149643z" fill-rule="evenodd"/><path fill="#000000" fill-opacity="0.0" d="m471.063 62.089962l0 0c-1.6711121 0.13869476 -3.3420105 -0.27075958 -4.7884216 -1.1733932m9.013245 14.014339c-0.67196655 0.2836151 -1.3763733 0.47244263 -2.0950012 0.56160736m20.146942 5.608528l0 0c-0.5054321 -0.8036804 -0.92858887 -1.6624756 -1.2622986 -2.56176m24.605652 -3.826294c-0.07434082 0.95323944 -0.24328613 1.8954468 -0.5040283 2.810913m10.52594 -20.178608l0 0c3.7886963 1.954876 6.1795654 6.041847 6.145813 10.505489m8.350769 -21.694546c-0.6135864 1.5199356 -1.550293 2.8682518 -2.7366333 3.9392319m-3.8302612 -18.555904l0 0c0.10455322 0.61379623 0.1529541 1.2368164 0.14447021 1.8604279m-17.621826 -4.030525l0 0c0.35662842 -0.8582916 0.8288574 -1.657444 1.4020386 -2.3725777m-14.514618 3.503069l0 0c0.1454773 -0.70929337 0.37356567 -1.396637 0.6790161 -2.046196m-16.068146 2.741394l0 0c0.8918762 0.55381393 1.7169495 1.2203922 2.4571533 1.9850903m-21.119812 13.616444l0 0c-0.19470215 -0.68312836 -0.33810425 -1.3815155 -0.428833 -2.0886192" fill-rule="evenodd"/><path stroke="#000000" stroke-width="1.0" stroke-linejoin="round" stroke-linecap="butt" d="m469.56372 44.707382c-0.65841675 -5.130295 1.5032654 -10.208984 5.5677795 -13.081005c4.064514 -2.8720226 9.319061 -3.0336895 13.533936 -0.41640282l0 0c1.4929504 -2.9831753 4.225586 -5.042862 7.371277 -5.556017c3.1457214 -0.5131531 6.3349915 0.58049965 8.603119 2.950138l0 0c1.2718506 -2.704691 3.7691956 -4.521904 6.6058044 -4.8067837c2.8365784 -0.28487778 5.6110535 1.0028954 7.3387756 3.4063435l0 0c2.2978516 -2.8668003 5.9536743 -4.0738297 9.385681 -3.0988026c3.4320068 0.9750252 6.0237427 3.9569855 6.6537476 7.6555786l0 0c2.8151245 0.81419945 5.160034 2.8839703 6.428894 5.6745586c1.2689209 2.7905884 1.3372803 6.028248 0.1875 8.876476l0 0c2.7722778 3.8254738 3.4207764 8.922924 1.7036133 13.390041c-1.7172241 4.4671173 -5.5421753 7.632759 -10.047485 8.315544c-0.03173828 4.1926956 -2.2002563 8.039848 -5.669739 10.058586c-3.4694214 2.0187302 -7.698059 1.8937988 -11.055847 -0.3266449c-1.4302979 5.0214615 -5.4561462 8.716209 -10.338196 9.487953c-4.8820496 0.7717514 -9.745117 -1.5178528 -12.488129 -5.8796005c-3.3623352 2.149887 -7.3969116 2.7692108 -11.1935425 1.7182617c-3.7966309 -1.0509567 -7.0355225 -3.6836548 -8.986053 -7.304199l0 0c-3.435852 0.4263382 -6.7578735 -1.4611816 -8.317352 -4.7257996c-1.5594788 -3.264618 -1.0244446 -7.2113724 1.3395691 -9.881523l0 0c-3.065033 -1.9127731 -4.6290283 -5.7083664 -3.8763733 -9.407524c0.752655 -3.699154 3.6513672 -6.4636307 7.184601 -6.8518524z" fill-rule="evenodd"/><path stroke="#000000" stroke-width="1.0" stroke-linejoin="round" stroke-linecap="butt" d="m487.84805 95.30315c0 0.9784622 -0.7932129 1.7716599 -1.7716675 1.7716599c-0.9784546 0 -1.771637 -0.79319763 -1.771637 -1.7716599c0 -0.9784546 0.7931824 -1.7716522 1.771637 -1.7716522c0.9784546 0 1.7716675 0.79319763 1.7716675 1.7716522z" fill-rule="evenodd"/><path stroke="#000000" stroke-width="1.0" stroke-linejoin="round" stroke-linecap="butt" d="m490.5258 93.18603c0 1.9569168 -1.5863953 3.543312 -3.543335 3.543312c-1.9569092 0 -3.5433044 -1.5863953 -3.5433044 -3.543312c0 -1.9569092 1.5863953 -3.5433044 3.5433044 -3.5433044c1.9569397 0 3.543335 1.5863953 3.543335 3.5433044z" fill-rule="evenodd"/><path stroke="#000000" stroke-width="1.0" stroke-linejoin="round" stroke-linecap="butt" d="m494.59766 87.8114l0 0c0 2.9353714 -2.3796082 5.3149567 -5.314972 5.3149567c-2.9353638 0 -5.314972 -2.3795853 -5.314972 -5.3149567c0 -2.9353714 2.3796082 -5.3149643 5.314972 -5.3149643c2.9353638 0 5.314972 2.379593 5.314972 5.3149643z" fill-rule="evenodd"/><path stroke="#000000" stroke-width="1.0" stroke-linejoin="round" stroke-linecap="butt" d="m471.063 62.089962l0 0c-1.6711121 0.13869476 -3.3420105 -0.27075958 -4.7884216 -1.1733932m9.013245 14.014339c-0.67196655 0.2836151 -1.3763733 0.47244263 -2.0950012 0.56160736m20.146942 5.608528l0 0c-0.5054321 -0.8036804 -0.92858887 -1.6624756 -1.2622986 -2.56176m24.605652 -3.826294c-0.07434082 0.95323944 -0.24328613 1.8954468 -0.5040283 2.810913m10.52594 -20.178608l0 0c3.7886963 1.954876 6.1795654 6.041847 6.145813 10.505489m8.350769 -21.694546c-0.6135864 1.5199356 -1.550293 2.8682518 -2.7366333 3.9392319m-3.8302612 -18.555904l0 0c0.10455322 0.61379623 0.1529541 1.2368164 0.14447021 1.8604279m-17.621826 -4.030525l0 0c0.35662842 -0.8582916 0.8288574 -1.657444 1.4020386 -2.3725777m-14.514618 3.503069l0 0c0.1454773 -0.70929337 0.37356567 -1.396637 0.6790161 -2.046196m-16.068146 2.741394l0 0c0.8918762 0.55381393 1.7169495 1.2203922 2.4571533 1.9850903m-21.119812 13.616444l0 0c-0.19470215 -0.68312836 -0.33810425 -1.3815155 -0.428833 -2.0886192" fill-rule="evenodd"/><path fill="#000000" d="m499.08228 58.268715q-0.015625 -0.421875 -0.015625 -0.625q0 -1.25 0.359375 -2.15625q0.25 -0.671875 0.828125 -1.359375q0.421875 -0.515625 1.515625 -1.46875q1.09375 -0.96875 1.421875 -1.546875q0.328125 -0.578125 0.328125 -1.25q0 -1.234375 -0.96875 -2.15625q-0.953125 -0.9375 -2.34375 -0.9375q-1.34375 0 -2.25 0.84375q-0.90625 0.84375 -1.1875 2.625l-2.15625 -0.25q0.28125 -2.40625 1.734375 -3.671875q1.453125 -1.28125 3.828125 -1.28125q2.515625 0 4.015625 1.375q1.5 1.359375 1.5 3.3125q0 1.125 -0.53125 2.078125q-0.515625 0.9375 -2.0625 2.296875q-1.03125 0.921875 -1.34375 1.359375q-0.3125 0.421875 -0.46875 0.984375q-0.15625 0.5625 -0.171875 1.828125l-2.03125 0zm-0.125 4.234375l0 -2.40625l2.40625 0l0 2.40625l-2.40625 0z" fill-rule="nonzero"/></g></svg>