<svg version="1.1" viewBox="0.0 0.0 649.1128608923884 307.38057742782155" fill="none" stroke="none" stroke-linecap="square" stroke-miterlimit="10" xmlns:xlink="http://www.w3.org/1999/xlink" xmlns="http://www.w3.org/2000/svg"><clipPath id="p.0"><path d="m0 0l649.11285 0l0 307.38058l-649.11285 0l0 -307.38058z" clip-rule="nonzero"/></clipPath><g clip-path="url(#p.0)"><path fill="#000000" fill-opacity="0.0" d="m0 0l649.11285 0l0 307.38058l-649.11285 0z" fill-rule="evenodd"/><path fill="#cfe2f3" d="m215.98962 67.84252l175.99457 0l0 236.15747l-175.99457 0z" fill-rule="evenodd"/><path stroke="#000000" stroke-width="1.0" stroke-linejoin="round" stroke-linecap="butt" d="m215.98962 67.84252l175.99457 0l0 236.15747l-175.99457 0z" fill-rule="evenodd"/><path fill="#000000" d="m296.23886 178.57063l6.71875 0l-0.125 0.4375q-1.03125 0.015625 -1.484375 0.1875q-0.4375 0.171875 -0.75 0.609375q-0.296875 0.421875 -0.640625 1.59375l-1.625 5.625q-0.4375 1.5 -0.515625 1.96875q-0.140625 0.75 -0.140625 1.40625q0 1.40625 1.046875 2.390625q1.0625 0.984375 2.828125 0.984375q1.15625 0 2.0625 -0.4375q0.921875 -0.453125 1.5625 -1.234375q0.65625 -0.796875 1.1875 -2.140625q0.546875 -1.359375 0.96875 -2.75l1.40625 -4.84375q0.515625 -1.8125 0.515625 -2.375q0 -0.375 -0.359375 -0.65625q-0.34375 -0.28125 -1.4375 -0.328125l0.125 -0.4375l5.046875 0l-0.125 0.4375q-0.890625 0 -1.28125 0.171875q-0.390625 0.15625 -0.6875 0.609375q-0.296875 0.4375 -0.65625 1.703125l-1.71875 5.890625q-0.828125 2.875 -1.578125 4.234375q-0.734375 1.359375 -2.140625 2.28125q-1.390625 0.921875 -3.46875 0.921875q-2.390625 0 -3.859375 -1.34375q-1.453125 -1.359375 -1.453125 -3.109375q0 -0.6875 0.125 -1.46875q0.09375 -0.515625 0.453125 -1.78125l1.578125 -5.40625q0.328125 -1.171875 0.328125 -1.71875q0 -0.4375 -0.34375 -0.671875q-0.328125 -0.25 -1.671875 -0.3125l0.109375 -0.4375z" fill-rule="nonzero"/><path fill="#000000" d="m315.18027 196.57063l-0.140625 0.515625l-1.140625 0l-0.859375 3.421875q-0.578125 2.25 -1.15625 3.5q-0.8125 1.734375 -1.765625 2.40625q-0.71875 0.5 -1.4375 0.5q-0.46875 0 -0.796875 -0.28125q-0.25 -0.1875 -0.25 -0.5q0 -0.25 0.203125 -0.4375q0.203125 -0.1875 0.484375 -0.1875q0.21875 0 0.359375 0.125q0.140625 0.140625 0.140625 0.3125q0 0.171875 -0.15625 0.328125q-0.125 0.109375 -0.125 0.15625q0 0.078125 0.046875 0.109375q0.078125 0.0625 0.21875 0.0625q0.34375 0 0.71875 -0.21875q0.359375 -0.203125 0.65625 -0.625q0.296875 -0.421875 0.546875 -1.203125q0.109375 -0.328125 0.59375 -2.171875l1.359375 -5.296875l-1.359375 0l0.109375 -0.515625q0.640625 0 0.890625 -0.078125q0.265625 -0.09375 0.484375 -0.34375q0.21875 -0.265625 0.5625 -0.953125q0.453125 -0.9375 0.875 -1.453125q0.578125 -0.703125 1.21875 -1.046875q0.640625 -0.34375 1.203125 -0.34375q0.59375 0 0.953125 0.296875q0.359375 0.296875 0.359375 0.65625q0 0.265625 -0.1875 0.453125q-0.171875 0.1875 -0.453125 0.1875q-0.25 0 -0.40625 -0.140625q-0.140625 -0.140625 -0.140625 -0.328125q0 -0.125 0.09375 -0.3125q0.109375 -0.1875 0.109375 -0.25q0 -0.109375 -0.078125 -0.15625q-0.09375 -0.078125 -0.296875 -0.078125q-0.484375 0 -0.875 0.3125q-0.53125 0.40625 -0.9375 1.296875q-0.21875 0.453125 -0.78125 2.28125l1.15625 0z" fill-rule="nonzero"/><path fill="#000000" fill-opacity="0.0" d="m218.84412 75.55118l62.788605 0l0 39.527565l-62.788605 0z" fill-rule="evenodd"/><path fill="#000000" d="m231.07849 94.221176q0.453125 0.484375 0.671875 0.953125q0.171875 0.328125 0.546875 1.71875l0.796875 -1.203125q0.328125 -0.4375 0.78125 -0.828125q0.453125 -0.390625 0.796875 -0.546875q0.21875 -0.09375 0.484375 -0.09375q0.390625 0 0.625 0.21875q0.234375 0.203125 0.234375 0.5q0 0.359375 -0.140625 0.484375q-0.25 0.21875 -0.578125 0.21875q-0.203125 0 -0.421875 -0.078125q-0.421875 -0.140625 -0.5625 -0.140625q-0.21875 0 -0.53125 0.25q-0.5625 0.46875 -1.34375 1.828125l0.75 3.140625q0.171875 0.71875 0.28125 0.859375q0.125 0.140625 0.25 0.140625q0.1875 0 0.4375 -0.203125q0.5 -0.421875 0.859375 -1.09375l0.328125 0.15625q-0.578125 1.078125 -1.46875 1.78125q-0.5 0.40625 -0.84375 0.40625q-0.515625 0 -0.8125 -0.578125q-0.1875 -0.34375 -0.796875 -3.0625q-1.40625 2.46875 -2.265625 3.1875q-0.5625 0.453125 -1.078125 0.453125q-0.359375 0 -0.671875 -0.265625q-0.21875 -0.203125 -0.21875 -0.53125q0 -0.3125 0.203125 -0.5q0.203125 -0.203125 0.5 -0.203125q0.28125 0 0.609375 0.28125q0.234375 0.21875 0.375 0.21875q0.109375 0 0.28125 -0.140625q0.421875 -0.359375 1.15625 -1.5q0.75 -1.15625 0.96875 -1.65625q-0.5625 -2.21875 -0.609375 -2.34375q-0.203125 -0.59375 -0.546875 -0.828125q-0.328125 -0.25 -0.984375 -0.25q-0.21875 0 -0.484375 0.015625l0 -0.328125l2.421875 -0.4375z" fill-rule="nonzero"/><path fill="#000000" d="m240.42152 101.064926q0.78125 0 1.3125 0.65625q0.53125 0.640625 0.53125 2.046875q0 1.203125 -0.40625 2.453125q-0.390625 1.25 -1.09375 2.171875q-0.578125 0.71875 -1.203125 1.046875q-0.359375 0.171875 -0.84375 0.171875q-0.796875 0 -1.328125 -0.640625q-0.53125 -0.65625 -0.53125 -2.0625q0 -1.390625 0.546875 -2.796875q0.625 -1.640625 1.59375 -2.484375q0.640625 -0.5625 1.421875 -0.5625zm0.015625 0.3125q-0.359375 0 -0.71875 0.28125q-0.359375 0.28125 -0.75 1.15625q-0.390625 0.875 -0.734375 2.25q-0.453125 1.796875 -0.453125 3.0625q0 0.640625 0.265625 0.953125q0.28125 0.3125 0.671875 0.3125q0.359375 0 0.625 -0.25q0.703125 -0.65625 1.203125 -2.234375q0.796875 -2.59375 0.796875 -4.21875q0 -0.671875 -0.28125 -0.984375q-0.265625 -0.328125 -0.625 -0.328125z" fill-rule="nonzero"/><path fill="#000000" fill-opacity="0.0" d="m218.84412 157.47244l62.788605 0l0 39.527557l-62.788605 0z" fill-rule="evenodd"/><path fill="#000000" d="m231.07849 176.14244q0.453125 0.484375 0.671875 0.953125q0.171875 0.328125 0.546875 1.71875l0.796875 -1.203125q0.328125 -0.4375 0.78125 -0.828125q0.453125 -0.390625 0.796875 -0.546875q0.21875 -0.09375 0.484375 -0.09375q0.390625 0 0.625 0.21875q0.234375 0.203125 0.234375 0.5q0 0.359375 -0.140625 0.484375q-0.25 0.21875 -0.578125 0.21875q-0.203125 0 -0.421875 -0.078125q-0.421875 -0.140625 -0.5625 -0.140625q-0.21875 0 -0.53125 0.25q-0.5625 0.46875 -1.34375 1.828125l0.75 3.140625q0.171875 0.71875 0.28125 0.859375q0.125 0.140625 0.25 0.140625q0.1875 0 0.4375 -0.203125q0.5 -0.421875 0.859375 -1.09375l0.328125 0.15625q-0.578125 1.078125 -1.46875 1.78125q-0.5 0.40625 -0.84375 0.40625q-0.515625 0 -0.8125 -0.578125q-0.1875 -0.34375 -0.796875 -3.0625q-1.40625 2.46875 -2.265625 3.1875q-0.5625 0.453125 -1.078125 0.453125q-0.359375 0 -0.671875 -0.265625q-0.21875 -0.203125 -0.21875 -0.53125q0 -0.3125 0.203125 -0.5q0.203125 -0.203125 0.5 -0.203125q0.28125 0 0.609375 0.28125q0.234375 0.21875 0.375 0.21875q0.109375 0 0.28125 -0.140625q0.421875 -0.359375 1.15625 -1.5q0.75 -1.15625 0.96875 -1.65625q-0.5625 -2.21875 -0.609375 -2.34375q-0.203125 -0.59375 -0.546875 -0.828125q-0.328125 -0.25 -0.984375 -0.25q-0.21875 0 -0.484375 0.015625l0 -0.328125l2.421875 -0.4375z" fill-rule="nonzero"/><path fill="#000000" d="m241.31215 182.98619l-1.953125 6.8125q-0.171875 0.59375 -0.171875 0.859375q0 0.234375 0.15625 0.359375q0.15625 0.109375 0.734375 0.15625l-0.0625 0.21875l-3.125 0l0.078125 -0.21875q0.5 -0.015625 0.65625 -0.078125q0.25 -0.109375 0.375 -0.296875q0.203125 -0.28125 0.421875 -1.0l1.40625 -4.890625q0.125 -0.4375 0.140625 -0.515625q0.015625 -0.125 0.015625 -0.234375q0 -0.21875 -0.125 -0.328125q-0.109375 -0.125 -0.3125 -0.125q-0.15625 0 -0.484375 0.078125l-0.078125 -0.21875l2.046875 -0.578125l0.28125 0z" fill-rule="nonzero"/><path fill="#000000" fill-opacity="0.0" d="m215.98962 248.0l62.788605 0l0 40.0l-62.788605 0z" fill-rule="evenodd"/><path fill="#000000" d="m227.974 266.66998q0.3125 0.53125 0.421875 1.0q0.125 0.453125 0.25 1.796875l0.390625 4.484375q0.546875 -0.65625 1.59375 -2.078125q0.5 -0.6875 1.234375 -1.875q0.4375 -0.734375 0.546875 -1.03125q0.046875 -0.140625 0.046875 -0.296875q0 -0.09375 -0.0625 -0.15625q-0.0625 -0.078125 -0.328125 -0.15625q-0.265625 -0.09375 -0.453125 -0.3125q-0.171875 -0.234375 -0.171875 -0.546875q0 -0.359375 0.21875 -0.59375q0.21875 -0.234375 0.546875 -0.234375q0.40625 0 0.6875 0.34375q0.28125 0.328125 0.28125 0.90625q0 0.71875 -0.5 1.65625q-0.484375 0.921875 -1.890625 2.84375q-1.40625 1.90625 -3.390625 4.15625q-1.375 1.5625 -2.046875 1.96875q-0.65625 0.40625 -1.140625 0.40625q-0.28125 0 -0.484375 -0.21875q-0.21875 -0.21875 -0.21875 -0.5q0 -0.359375 0.296875 -0.65625q0.296875 -0.28125 0.640625 -0.28125q0.171875 0 0.296875 0.078125q0.078125 0.046875 0.171875 0.265625q0.078125 0.21875 0.140625 0.28125q0.046875 0.046875 0.109375 0.046875q0.0625 0 0.203125 -0.09375q0.5 -0.296875 1.15625 -0.96875q0.875 -0.90625 1.296875 -1.46875l-0.515625 -5.765625q-0.125 -1.4375 -0.375 -1.75q-0.25 -0.3125 -0.859375 -0.3125q-0.1875 0 -0.6875 0.0625l-0.078125 -0.34375l2.671875 -0.65625z" fill-rule="nonzero"/><path fill="#000000" fill-opacity="0.0" d="m329.1956 75.55118l62.788605 0l0 39.527565l-62.788605 0z" fill-rule="evenodd"/><path fill="#000000" d="m371.7194 94.221176q0.453125 0.484375 0.671875 0.953125q0.171875 0.328125 0.546875 1.71875l0.796875 -1.203125q0.328125 -0.4375 0.78125 -0.828125q0.453125 -0.390625 0.796875 -0.546875q0.21875 -0.09375 0.484375 -0.09375q0.390625 0 0.625 0.21875q0.234375 0.203125 0.234375 0.5q0 0.359375 -0.140625 0.484375q-0.25 0.21875 -0.578125 0.21875q-0.203125 0 -0.421875 -0.078125q-0.421875 -0.140625 -0.5625 -0.140625q-0.21875 0 -0.53125 0.25q-0.5625 0.46875 -1.34375 1.828125l0.75 3.140625q0.171875 0.71875 0.28125 0.859375q0.125 0.140625 0.25 0.140625q0.1875 0 0.4375 -0.203125q0.5 -0.421875 0.859375 -1.09375l0.328125 0.15625q-0.578125 1.078125 -1.46875 1.78125q-0.5 0.40625 -0.84375 0.40625q-0.515625 0 -0.8125 -0.578125q-0.1875 -0.34375 -0.796875 -3.0625q-1.40625 2.46875 -2.265625 3.1875q-0.5625 0.453125 -1.078125 0.453125q-0.359375 0 -0.671875 -0.265625q-0.21875 -0.203125 -0.21875 -0.53125q0 -0.3125 0.203125 -0.5q0.203125 -0.203125 0.5 -0.203125q0.28125 0 0.609375 0.28125q0.234375 0.21875 0.375 0.21875q0.109375 0 0.28125 -0.140625q0.421875 -0.359375 1.15625 -1.5q0.75 -1.15625 0.96875 -1.65625q-0.5625 -2.21875 -0.609375 -2.34375q-0.203125 -0.59375 -0.546875 -0.828125q-0.328125 -0.25 -0.984375 -0.25q-0.21875 0 -0.484375 0.015625l0 -0.328125l2.421875 -0.4375z" fill-rule="nonzero"/><path fill="#000000" d="m381.06244 101.064926q0.78125 0 1.3125 0.65625q0.53125 0.640625 0.53125 2.046875q0 1.203125 -0.40625 2.453125q-0.390625 1.25 -1.09375 2.171875q-0.578125 0.71875 -1.203125 1.046875q-0.359375 0.171875 -0.84375 0.171875q-0.796875 0 -1.328125 -0.640625q-0.53125 -0.65625 -0.53125 -2.0625q0 -1.390625 0.546875 -2.796875q0.625 -1.640625 1.59375 -2.484375q0.640625 -0.5625 1.421875 -0.5625zm0.015625 0.3125q-0.359375 0 -0.71875 0.28125q-0.359375 0.28125 -0.75 1.15625q-0.390625 0.875 -0.734375 2.25q-0.453125 1.796875 -0.453125 3.0625q0 0.640625 0.265625 0.953125q0.28125 0.3125 0.671875 0.3125q0.359375 0 0.625 -0.25q0.703125 -0.65625 1.203125 -2.234375q0.796875 -2.59375 0.796875 -4.21875q0 -0.671875 -0.28125 -0.984375q-0.265625 -0.328125 -0.625 -0.328125z" fill-rule="nonzero"/><path fill="#000000" fill-opacity="0.0" d="m329.1956 157.47244l62.788605 0l0 39.527557l-62.788605 0z" fill-rule="evenodd"/><path fill="#000000" d="m371.7194 176.14244q0.453125 0.484375 0.671875 0.953125q0.171875 0.328125 0.546875 1.71875l0.796875 -1.203125q0.328125 -0.4375 0.78125 -0.828125q0.453125 -0.390625 0.796875 -0.546875q0.21875 -0.09375 0.484375 -0.09375q0.390625 0 0.625 0.21875q0.234375 0.203125 0.234375 0.5q0 0.359375 -0.140625 0.484375q-0.25 0.21875 -0.578125 0.21875q-0.203125 0 -0.421875 -0.078125q-0.421875 -0.140625 -0.5625 -0.140625q-0.21875 0 -0.53125 0.25q-0.5625 0.46875 -1.34375 1.828125l0.75 3.140625q0.171875 0.71875 0.28125 0.859375q0.125 0.140625 0.25 0.140625q0.1875 0 0.4375 -0.203125q0.5 -0.421875 0.859375 -1.09375l0.328125 0.15625q-0.578125 1.078125 -1.46875 1.78125q-0.5 0.40625 -0.84375 0.40625q-0.515625 0 -0.8125 -0.578125q-0.1875 -0.34375 -0.796875 -3.0625q-1.40625 2.46875 -2.265625 3.1875q-0.5625 0.453125 -1.078125 0.453125q-0.359375 0 -0.671875 -0.265625q-0.21875 -0.203125 -0.21875 -0.53125q0 -0.3125 0.203125 -0.5q0.203125 -0.203125 0.5 -0.203125q0.28125 0 0.609375 0.28125q0.234375 0.21875 0.375 0.21875q0.109375 0 0.28125 -0.140625q0.421875 -0.359375 1.15625 -1.5q0.75 -1.15625 0.96875 -1.65625q-0.5625 -2.21875 -0.609375 -2.34375q-0.203125 -0.59375 -0.546875 -0.828125q-0.328125 -0.25 -0.984375 -0.25q-0.21875 0 -0.484375 0.015625l0 -0.328125l2.421875 -0.4375z" fill-rule="nonzero"/><path fill="#000000" d="m381.95306 182.98619l-1.953125 6.8125q-0.171875 0.59375 -0.171875 0.859375q0 0.234375 0.15625 0.359375q0.15625 0.109375 0.734375 0.15625l-0.0625 0.21875l-3.125 0l0.078125 -0.21875q0.5 -0.015625 0.65625 -0.078125q0.25 -0.109375 0.375 -0.296875q0.203125 -0.28125 0.421875 -1.0l1.40625 -4.890625q0.125 -0.4375 0.140625 -0.515625q0.015625 -0.125 0.015625 -0.234375q0 -0.21875 -0.125 -0.328125q-0.109375 -0.125 -0.3125 -0.125q-0.15625 0 -0.484375 0.078125l-0.078125 -0.21875l2.046875 -0.578125l0.28125 0z" fill-rule="nonzero"/><path fill="#000000" fill-opacity="0.0" d="m292.08713 248.0l99.871155 0l0 39.527557l-99.871155 0z" fill-rule="evenodd"/><path fill="#000000" d="m321.5551 266.66998q0.3125 0.53125 0.421875 1.0q0.125 0.453125 0.25 1.796875l0.390625 4.484375q0.546875 -0.65625 1.59375 -2.078125q0.5 -0.6875 1.234375 -1.875q0.4375 -0.734375 0.546875 -1.03125q0.046875 -0.140625 0.046875 -0.296875q0 -0.09375 -0.0625 -0.15625q-0.0625 -0.078125 -0.328125 -0.15625q-0.265625 -0.09375 -0.453125 -0.3125q-0.171875 -0.234375 -0.171875 -0.546875q0 -0.359375 0.21875 -0.59375q0.21875 -0.234375 0.546875 -0.234375q0.40625 0 0.6875 0.34375q0.28125 0.328125 0.28125 0.90625q0 0.71875 -0.5 1.65625q-0.484375 0.921875 -1.890625 2.84375q-1.40625 1.90625 -3.390625 4.15625q-1.375 1.5625 -2.046875 1.96875q-0.65625 0.40625 -1.140625 0.40625q-0.28125 0 -0.484375 -0.21875q-0.21875 -0.21875 -0.21875 -0.5q0 -0.359375 0.296875 -0.65625q0.296875 -0.28125 0.640625 -0.28125q0.171875 0 0.296875 0.078125q0.078125 0.046875 0.171875 0.265625q0.078125 0.21875 0.140625 0.28125q0.046875 0.046875 0.109375 0.046875q0.0625 0 0.203125 -0.09375q0.5 -0.296875 1.15625 -0.96875q0.875 -0.90625 1.296875 -1.46875l-0.515625 -5.765625q-0.125 -1.4375 -0.375 -1.75q-0.25 -0.3125 -0.859375 -0.3125q-0.1875 0 -0.6875 0.0625l-0.078125 -0.34375l2.671875 -0.65625z" fill-rule="nonzero"/><path fill="#000000" d="m333.2263 268.3106l-0.578125 2.75l-0.515625 0l0.578125 -2.75l-2.75 0l0.109375 -0.515625l2.75 0l0.578125 -2.75l0.515625 0l-0.578125 2.75l2.75 0l-0.109375 0.515625l-2.75 0zm-0.953125 3.421875q1.484375 0 2.84375 -1.125q1.265625 -1.03125 1.578125 -2.515625q0.3125 -1.484375 -0.515625 -2.53125q-0.875 -1.109375 -2.359375 -1.109375q-1.484375 0 -2.828125 1.109375q-1.265625 1.046875 -1.578125 2.53125q-0.3125 1.484375 0.515625 2.515625q0.859375 1.125 2.34375 1.125zm3.234375 -0.828125q-1.640625 1.34375 -3.34375 1.34375q-1.703125 0 -2.6875 -1.265625q-0.9375 -1.1875 -0.578125 -2.890625q0.359375 -1.703125 1.703125 -2.828125q1.625 -1.328125 3.328125 -1.328125q1.703125 0 2.703125 1.265625q0.9375 1.1875 0.578125 2.890625q-0.359375 1.703125 -1.703125 2.8125z" fill-rule="nonzero"/><path fill="#000000" d="m341.88254 266.88873l-0.15625 0.609375l-1.328125 0l-1.015625 3.984375q-0.65625 2.625 -1.328125 4.0625q-0.953125 2.03125 -2.0625 2.8125q-0.84375 0.59375 -1.671875 0.59375q-0.546875 0 -0.9375 -0.328125q-0.28125 -0.234375 -0.28125 -0.59375q0 -0.296875 0.234375 -0.515625q0.234375 -0.203125 0.578125 -0.203125q0.234375 0 0.40625 0.15625q0.171875 0.15625 0.171875 0.34375q0 0.203125 -0.1875 0.375q-0.15625 0.125 -0.15625 0.203125q0 0.078125 0.0625 0.125q0.09375 0.0625 0.265625 0.0625q0.390625 0 0.828125 -0.25q0.421875 -0.25 0.765625 -0.734375q0.328125 -0.484375 0.625 -1.40625q0.140625 -0.375 0.6875 -2.515625l1.59375 -6.171875l-1.59375 0l0.125 -0.609375q0.765625 0 1.0625 -0.09375q0.296875 -0.109375 0.546875 -0.40625q0.25 -0.296875 0.65625 -1.109375q0.53125 -1.09375 1.03125 -1.6875q0.671875 -0.8125 1.40625 -1.21875q0.75 -0.40625 1.40625 -0.40625q0.6875 0 1.109375 0.359375q0.421875 0.34375 0.421875 0.75q0 0.3125 -0.21875 0.53125q-0.203125 0.21875 -0.53125 0.21875q-0.28125 0 -0.46875 -0.15625q-0.171875 -0.171875 -0.171875 -0.390625q0 -0.140625 0.109375 -0.359375q0.125 -0.21875 0.125 -0.28125q0 -0.140625 -0.078125 -0.203125q-0.109375 -0.09375 -0.34375 -0.09375q-0.578125 0 -1.03125 0.375q-0.609375 0.484375 -1.09375 1.515625q-0.25 0.53125 -0.890625 2.65625l1.328125 0zm3.1520386 11.875l-0.296875 0.140625q-1.09375 -2.0625 -1.5625 -3.640625q-0.359375 -1.25 -0.359375 -2.5q0 -2.9375 1.34375 -5.265625q1.671875 -2.828125 5.40625 -5.53125l0.21875 0.3125q-1.6875 1.25 -2.75 2.796875q-1.328125 1.9375 -2.171875 4.671875q-0.84375 2.734375 -0.84375 4.96875q0 1.71875 1.015625 4.046875zm5.947052 -12.09375q0.453125 0.484375 0.671875 0.953125q0.171875 0.328125 0.546875 1.71875l0.796875 -1.203125q0.328125 -0.4375 0.78125 -0.828125q0.453125 -0.390625 0.796875 -0.546875q0.21875 -0.09375 0.484375 -0.09375q0.390625 0 0.625 0.21875q0.234375 0.203125 0.234375 0.5q0 0.359375 -0.140625 0.484375q-0.25 0.21875 -0.578125 0.21875q-0.203125 0 -0.421875 -0.078125q-0.421875 -0.140625 -0.5625 -0.140625q-0.21875 0 -0.53125 0.25q-0.5625 0.46875 -1.34375 1.828125l0.75 3.140625q0.171875 0.71875 0.28125 0.859375q0.125 0.140625 0.25 0.140625q0.1875 0 0.4375 -0.203125q0.5 -0.421875 0.859375 -1.09375l0.328125 0.15625q-0.578125 1.078125 -1.46875 1.78125q-0.5 0.40625 -0.84375 0.40625q-0.515625 0 -0.8125 -0.578125q-0.1875 -0.34375 -0.796875 -3.0625q-1.40625 2.46875 -2.265625 3.1875q-0.5625 0.453125 -1.078125 0.453125q-0.359375 0 -0.671875 -0.265625q-0.21875 -0.203125 -0.21875 -0.53125q0 -0.3125 0.203125 -0.5q0.203125 -0.203125 0.5 -0.203125q0.28125 0 0.609375 0.28125q0.234375 0.21875 0.375 0.21875q0.109375 0 0.28125 -0.140625q0.421875 -0.359375 1.15625 -1.5q0.75 -1.15625 0.96875 -1.65625q-0.5625 -2.21875 -0.609375 -2.34375q-0.203125 -0.59375 -0.546875 -0.828125q-0.328125 -0.25 -0.984375 -0.25q-0.21875 0 -0.484375 0.015625l0 -0.328125l2.421875 -0.4375z" fill-rule="nonzero"/><path fill="#000000" d="m360.32468 273.51373q0.78125 0 1.3125 0.65625q0.53125 0.640625 0.53125 2.046875q0 1.203125 -0.40625 2.453125q-0.390625 1.25 -1.09375 2.171875q-0.578125 0.71875 -1.203125 1.046875q-0.359375 0.171875 -0.84375 0.171875q-0.796875 0 -1.328125 -0.640625q-0.53125 -0.65625 -0.53125 -2.0625q0 -1.390625 0.546875 -2.796875q0.625 -1.640625 1.59375 -2.484375q0.640625 -0.5625 1.421875 -0.5625zm0.015625 0.3125q-0.359375 0 -0.71875 0.28125q-0.359375 0.28125 -0.75 1.15625q-0.390625 0.875 -0.734375 2.25q-0.453125 1.796875 -0.453125 3.0625q0 0.640625 0.265625 0.953125q0.28125 0.3125 0.671875 0.3125q0.359375 0 0.625 -0.25q0.703125 -0.65625 1.203125 -2.234375q0.796875 -2.59375 0.796875 -4.21875q0 -0.671875 -0.28125 -0.984375q-0.265625 -0.328125 -0.625 -0.328125z" fill-rule="nonzero"/><path fill="#000000" d="m365.4808 266.66998q0.453125 0.484375 0.671875 0.953125q0.171875 0.328125 0.546875 1.71875l0.796875 -1.203125q0.328125 -0.4375 0.78125 -0.828125q0.453125 -0.390625 0.796875 -0.546875q0.21875 -0.09375 0.484375 -0.09375q0.390625 0 0.625 0.21875q0.234375 0.203125 0.234375 0.5q0 0.359375 -0.140625 0.484375q-0.25 0.21875 -0.578125 0.21875q-0.203125 0 -0.421875 -0.078125q-0.421875 -0.140625 -0.5625 -0.140625q-0.21875 0 -0.53125 0.25q-0.5625 0.46875 -1.34375 1.828125l0.75 3.140625q0.171875 0.71875 0.28125 0.859375q0.125 0.140625 0.25 0.140625q0.1875 0 0.4375 -0.203125q0.5 -0.421875 0.859375 -1.09375l0.328125 0.15625q-0.578125 1.078125 -1.46875 1.78125q-0.5 0.40625 -0.84375 0.40625q-0.515625 0 -0.8125 -0.578125q-0.1875 -0.34375 -0.796875 -3.0625q-1.40625 2.46875 -2.265625 3.1875q-0.5625 0.453125 -1.078125 0.453125q-0.359375 0 -0.671875 -0.265625q-0.21875 -0.203125 -0.21875 -0.53125q0 -0.3125 0.203125 -0.5q0.203125 -0.203125 0.5 -0.203125q0.28125 0 0.609375 0.28125q0.234375 0.21875 0.375 0.21875q0.109375 0 0.28125 -0.140625q0.421875 -0.359375 1.15625 -1.5q0.75 -1.15625 0.96875 -1.65625q-0.5625 -2.21875 -0.609375 -2.34375q-0.203125 -0.59375 -0.546875 -0.828125q-0.328125 -0.25 -0.984375 -0.25q-0.21875 0 -0.484375 0.015625l0 -0.328125l2.421875 -0.4375z" fill-rule="nonzero"/><path fill="#000000" d="m375.71448 273.51373l-1.953125 6.8125q-0.171875 0.59375 -0.171875 0.859375q0 0.234375 0.15625 0.359375q0.15625 0.109375 0.734375 0.15625l-0.0625 0.21875l-3.125 0l0.078125 -0.21875q0.5 -0.015625 0.65625 -0.078125q0.25 -0.109375 0.375 -0.296875q0.203125 -0.28125 0.421875 -1.0l1.40625 -4.890625q0.125 -0.4375 0.140625 -0.515625q0.015625 -0.125 0.015625 -0.234375q0 -0.21875 -0.125 -0.328125q-0.109375 -0.125 -0.3125 -0.125q-0.15625 0 -0.484375 0.078125l-0.078125 -0.21875l2.046875 -0.578125l0.28125 0z" fill-rule="nonzero"/><path fill="#000000" d="m379.46436 262.13873l0.3125 -0.171875q1.078125 2.0625 1.546875 3.640625q0.375 1.234375 0.375 2.5q0 2.9375 -1.359375 5.25q-1.6875 2.859375 -5.40625 5.546875l-0.21875 -0.28125q1.6875 -1.25 2.75 -2.796875q1.328125 -1.921875 2.171875 -4.65625q0.859375 -2.75 0.859375 -4.984375q0 -1.71875 -1.03125 -4.046875z" fill-rule="nonzero"/><path fill="#000000" fill-opacity="0.0" d="m40.0 96.0l176.0 0" fill-rule="evenodd"/><path stroke="#000000" stroke-width="1.0" stroke-linejoin="round" stroke-linecap="butt" d="m40.0 96.0l176.0 0" fill-rule="evenodd"/><path fill="#000000" fill-opacity="0.0" d="m40.0 184.0l176.0 -0.40945435" fill-rule="evenodd"/><path stroke="#000000" stroke-width="1.0" stroke-linejoin="round" stroke-linecap="butt" d="m40.0 184.0l176.0 -0.40945435" fill-rule="evenodd"/><path fill="#000000" fill-opacity="0.0" d="m40.0 272.0l176.0 -0.40945435" fill-rule="evenodd"/><path stroke="#000000" stroke-width="1.0" stroke-linejoin="round" stroke-linecap="butt" d="m40.0 272.0l176.0 -0.40945435" fill-rule="evenodd"/><path fill="#cfe2f3" d="m96.0 68.91338l60.72441 0l0 51.086617l-60.72441 0z" fill-rule="evenodd"/><path stroke="#000000" stroke-width="1.0" stroke-linejoin="round" stroke-linecap="butt" d="m96.0 68.91338l60.72441 0l0 51.086617l-60.72441 0z" fill-rule="evenodd"/><path fill="#000000" d="m120.40698 101.37669l2.796875 -13.359375l1.78125 0l-1.15625 5.546875l6.921875 0l1.15625 -5.546875l1.78125 0l-2.78125 13.359375l-1.796875 0l1.3125 -6.296875l-6.90625 0l-1.328125 6.296875l-1.78125 0z" fill-rule="nonzero"/><path fill="#cfe2f3" d="m96.0 156.91339l60.72441 0l0 51.08661l-60.72441 0z" fill-rule="evenodd"/><path stroke="#000000" stroke-width="1.0" stroke-linejoin="round" stroke-linecap="butt" d="m96.0 156.91339l60.72441 0l0 51.08661l-60.72441 0z" fill-rule="evenodd"/><path fill="#000000" d="m120.40698 189.3767l2.796875 -13.359375l1.78125 0l-1.15625 5.546875l6.921875 0l1.15625 -5.546875l1.78125 0l-2.78125 13.359375l-1.796875 0l1.3125 -6.296875l-6.90625 0l-1.328125 6.296875l-1.78125 0z" fill-rule="nonzero"/><path fill="#cfe2f3" d="m96.0 244.91339l60.72441 0l0 51.08661l-60.72441 0z" fill-rule="evenodd"/><path stroke="#000000" stroke-width="1.0" stroke-linejoin="round" stroke-linecap="butt" d="m96.0 244.91339l60.72441 0l0 51.08661l-60.72441 0z" fill-rule="evenodd"/><path fill="#000000" d="m120.40698 277.37668l2.796875 -13.359375l1.78125 0l-1.15625 5.546875l6.921875 0l1.15625 -5.546875l1.78125 0l-2.78125 13.359375l-1.796875 0l1.3125 -6.296875l-6.90625 0l-1.328125 6.296875l-1.78125 0z" fill-rule="nonzero"/><path fill="#000000" fill-opacity="0.0" d="m0 72.0l44.062992 0l0 48.0l-44.062992 0z" fill-rule="evenodd"/><path fill="#000000" d="m11.21875 85.96687l0 16.984375l-0.75 0l0 -16.984375l0.75 0zm2.1880188 6.84375q0 -2.109375 0.640625 -3.625q0.640625 -1.53125 1.6875 -2.28125q0.828125 -0.59375 1.703125 -0.59375q1.421875 0 2.546875 1.453125q1.40625 1.796875 1.40625 4.859375q0 2.15625 -0.625 3.65625q-0.609375 1.5 -1.578125 2.1875q-0.953125 0.671875 -1.84375 0.671875q-1.765625 0 -2.9375 -2.09375q-1.0 -1.75 -1.0 -4.234375zm1.78125 0.234375q0 2.546875 0.640625 4.15625q0.515625 1.359375 1.546875 1.359375q0.484375 0 1.015625 -0.4375q0.53125 -0.4375 0.796875 -1.484375q0.421875 -1.5625 0.421875 -4.421875q0 -2.109375 -0.4375 -3.515625q-0.328125 -1.046875 -0.84375 -1.484375q-0.375 -0.296875 -0.90625 -0.296875q-0.609375 0 -1.09375 0.546875q-0.65625 0.765625 -0.90625 2.390625q-0.234375 1.609375 -0.234375 3.1875z" fill-rule="nonzero"/><path fill="#000000" d="m26.969269 92.17l0 -0.15625l-4.015625 -8.09375l0.59375 -0.296875l4.234375 8.46875l-4.234375 8.46875l-0.59375 -0.296875l4.015625 -8.09375z" fill-rule="nonzero"/><path fill="#000000" fill-opacity="0.0" d="m0 160.0l45.732285 0l0 48.0l-45.732285 0z" fill-rule="evenodd"/><path fill="#000000" d="m11.21875 173.96687l0 16.984375l-0.75 0l0 -16.984375l0.75 0zm2.1880188 6.84375q0 -2.109375 0.640625 -3.625q0.640625 -1.53125 1.6875 -2.28125q0.828125 -0.59375 1.703125 -0.59375q1.421875 0 2.546875 1.453125q1.40625 1.796875 1.40625 4.859375q0 2.15625 -0.625 3.65625q-0.609375 1.5 -1.578125 2.1875q-0.953125 0.671875 -1.84375 0.671875q-1.765625 0 -2.9375 -2.09375q-1.0 -1.75 -1.0 -4.234375zm1.78125 0.234375q0 2.546875 0.640625 4.15625q0.515625 1.359375 1.546875 1.359375q0.484375 0 1.015625 -0.4375q0.53125 -0.4375 0.796875 -1.484375q0.421875 -1.5625 0.421875 -4.421875q0 -2.109375 -0.4375 -3.515625q-0.328125 -1.046875 -0.84375 -1.484375q-0.375 -0.296875 -0.90625 -0.296875q-0.609375 0 -1.09375 0.546875q-0.65625 0.765625 -0.90625 2.390625q-0.234375 1.609375 -0.234375 3.1875z" fill-rule="nonzero"/><path fill="#000000" d="m26.969269 180.17l0 -0.15625l-4.015625 -8.09375l0.59375 -0.296875l4.234375 8.46875l-4.234375 8.46875l-0.59375 -0.296875l4.015625 -8.09375z" fill-rule="nonzero"/><path fill="#000000" fill-opacity="0.0" d="m0 248.0l44.062992 0l0 48.0l-44.062992 0z" fill-rule="evenodd"/><path fill="#000000" d="m11.21875 261.96686l0 16.984375l-0.75 0l0 -16.984375l0.75 0zm3.7036438 1.8125l3.0 -1.46875l0.3125 0l0 10.4375q0 1.03125 0.078125 1.296875q0.09375 0.25 0.359375 0.390625q0.28125 0.125 1.109375 0.140625l0 0.34375l-4.640625 0l0 -0.34375q0.875 -0.015625 1.125 -0.140625q0.265625 -0.140625 0.359375 -0.359375q0.09375 -0.21875 0.09375 -1.328125l0 -6.671875q0 -1.34375 -0.078125 -1.734375q-0.078125 -0.296875 -0.25 -0.421875q-0.15625 -0.140625 -0.390625 -0.140625q-0.34375 0 -0.9375 0.28125l-0.140625 -0.28125z" fill-rule="nonzero"/><path fill="#000000" d="m26.969269 268.16998l0 -0.15625l-4.015625 -8.09375l0.59375 -0.296875l4.234375 8.46875l-4.234375 8.46875l-0.59375 -0.296875l4.015625 -8.09375z" fill-rule="nonzero"/><path fill="#000000" fill-opacity="0.0" d="m392.0 96.0l248.0 0" fill-rule="evenodd"/><path stroke="#000000" stroke-width="1.0" stroke-linejoin="round" stroke-linecap="butt" d="m392.0 96.0l248.0 0" fill-rule="evenodd"/><path fill="#000000" fill-opacity="0.0" d="m392.0 184.0l248.0 0" fill-rule="evenodd"/><path stroke="#000000" stroke-width="1.0" stroke-linejoin="round" stroke-linecap="butt" d="m392.0 184.0l248.0 0" fill-rule="evenodd"/><path fill="#000000" fill-opacity="0.0" d="m392.0 272.0l176.0 -0.40945435" fill-rule="evenodd"/><path stroke="#000000" stroke-width="1.0" stroke-linejoin="round" stroke-linecap="butt" d="m392.0 272.0l176.0 -0.40945435" fill-rule="evenodd"/><path fill="#cfe2f3" d="m443.2756 64.0l60.724396 0l0 51.086617l-60.724396 0z" fill-rule="evenodd"/><path stroke="#000000" stroke-width="1.0" stroke-linejoin="round" stroke-linecap="butt" d="m443.2756 64.0l60.724396 0l0 51.086617l-60.724396 0z" fill-rule="evenodd"/><path fill="#000000" d="m467.6826 96.4633l2.796875 -13.359375l1.78125 0l-1.15625 5.546875l6.921875 0l1.15625 -5.546875l1.78125 0l-2.78125 13.359375l-1.796875 0l1.3125 -6.296875l-6.90625 0l-1.328125 6.296875l-1.78125 0z" fill-rule="nonzero"/><path fill="#cfe2f3" d="m443.2756 152.0l60.724396 0l0 51.08661l-60.724396 0z" fill-rule="evenodd"/><path stroke="#000000" stroke-width="1.0" stroke-linejoin="round" stroke-linecap="butt" d="m443.2756 152.0l60.724396 0l0 51.08661l-60.724396 0z" fill-rule="evenodd"/><path fill="#000000" d="m467.6826 184.4633l2.796875 -13.359375l1.78125 0l-1.15625 5.546875l6.921875 0l1.15625 -5.546875l1.78125 0l-2.78125 13.359375l-1.796875 0l1.3125 -6.296875l-6.90625 0l-1.328125 6.296875l-1.78125 0z" fill-rule="nonzero"/><path fill="#cfe2f3" d="m547.2756 64.0l60.724426 0l0 51.086617l-60.724426 0z" fill-rule="evenodd"/><path stroke="#000000" stroke-width="1.0" stroke-linejoin="round" stroke-linecap="butt" d="m547.2756 64.0l60.724426 0l0 51.086617l-60.724426 0z" fill-rule="evenodd"/><path fill="#000000" d="m570.6799 96.4633l2.796875 -13.359375l2.1875 0l1.359375 8.65625q0.265625 1.703125 0.34375 3.265625q0.546875 -1.34375 1.859375 -3.640625l4.671875 -8.28125l2.234375 0l-2.78125 13.359375l-1.765625 0l1.40625 -6.5q0.46875 -2.25 1.375 -5.046875q-0.578125 1.3125 -1.421875 2.8125l-4.96875 8.734375l-1.71875 0l-1.34375 -8.5625q-0.1875 -1.171875 -0.265625 -2.75q-0.21875 1.765625 -0.4375 2.796875l-1.78125 8.515625l-1.75 0z" fill-rule="nonzero"/><path fill="#cfe2f3" d="m547.2756 152.0l60.724426 0l0 51.08661l-60.724426 0z" fill-rule="evenodd"/><path stroke="#000000" stroke-width="1.0" stroke-linejoin="round" stroke-linecap="butt" d="m547.2756 152.0l60.724426 0l0 51.08661l-60.724426 0z" fill-rule="evenodd"/><path fill="#000000" d="m570.6799 184.4633l2.796875 -13.359375l2.1875 0l1.359375 8.65625q0.265625 1.703125 0.34375 3.265625q0.546875 -1.34375 1.859375 -3.640625l4.671875 -8.28125l2.234375 0l-2.78125 13.359375l-1.765625 0l1.40625 -6.5q0.46875 -2.25 1.375 -5.046875q-0.578125 1.3125 -1.421875 2.8125l-4.96875 8.734375l-1.71875 0l-1.34375 -8.5625q-0.1875 -1.171875 -0.265625 -2.75q-0.21875 1.765625 -0.4375 2.796875l-1.78125 8.515625l-1.75 0z" fill-rule="nonzero"/><path fill="#000000" fill-opacity="0.0" d="m48.0 0l40.0 0l0 48.0l-40.0 0z" fill-rule="evenodd"/><path fill="#000000" d="m63.234375 18.524376l-0.90625 3.1875l1.828125 0l-0.1875 0.734375l-1.828125 0l-2.015625 6.921875q-0.328125 1.109375 -0.328125 1.4375q0 0.203125 0.09375 0.3125q0.09375 0.09375 0.21875 0.09375q0.296875 0 0.765625 -0.40625q0.28125 -0.234375 1.265625 -1.4375l0.375 0.296875q-1.078125 1.5625 -2.03125 2.203125q-0.65625 0.453125 -1.328125 0.453125q-0.515625 0 -0.84375 -0.3125q-0.328125 -0.328125 -0.328125 -0.84375q0 -0.625 0.375 -1.921875l1.953125 -6.796875l-1.765625 0l0.125 -0.453125q1.28125 -0.34375 2.140625 -1.046875q0.859375 -0.703125 1.90625 -2.421875l0.515625 0z" fill-rule="nonzero"/><path fill="#000000" d="m69.19922 30.2275q1.0 0 1.6875 0.84375q0.6875 0.828125 0.6875 2.625q0 1.546875 -0.515625 3.15625q-0.5 1.609375 -1.421875 2.796875q-0.734375 0.921875 -1.546875 1.34375q-0.46875 0.234375 -1.078125 0.234375q-1.015625 0 -1.703125 -0.828125q-0.6875 -0.84375 -0.6875 -2.65625q0 -1.796875 0.6875 -3.59375q0.8125 -2.109375 2.0625 -3.203125q0.8125 -0.71875 1.828125 -0.71875zm0.015625 0.40625q-0.453125 0 -0.921875 0.359375q-0.46875 0.34375 -0.96875 1.46875q-0.484375 1.125 -0.9375 2.90625q-0.59375 2.3125 -0.59375 3.953125q0 0.8125 0.34375 1.21875q0.359375 0.390625 0.859375 0.390625q0.484375 0 0.8125 -0.3125q0.90625 -0.84375 1.546875 -2.875q1.03125 -3.34375 1.03125 -5.421875q0 -0.875 -0.359375 -1.28125q-0.34375 -0.40625 -0.8125 -0.40625z" fill-rule="nonzero"/><path fill="#000000" fill-opacity="0.0" d="m168.0 0l40.0 0l0 48.0l-40.0 0z" fill-rule="evenodd"/><path fill="#000000" d="m183.23438 18.524376l-0.90625 3.1875l1.828125 0l-0.1875 0.734375l-1.828125 0l-2.015625 6.921875q-0.328125 1.109375 -0.328125 1.4375q0 0.203125 0.09375 0.3125q0.09375 0.09375 0.21875 0.09375q0.296875 0 0.765625 -0.40625q0.28125 -0.234375 1.265625 -1.4375l0.375 0.296875q-1.078125 1.5625 -2.03125 2.203125q-0.65625 0.453125 -1.328125 0.453125q-0.515625 0 -0.84375 -0.3125q-0.328125 -0.328125 -0.328125 -0.84375q0 -0.625 0.375 -1.921875l1.953125 -6.796875l-1.765625 0l0.125 -0.453125q1.28125 -0.34375 2.140625 -1.046875q0.859375 -0.703125 1.90625 -2.421875l0.515625 0z" fill-rule="nonzero"/><path fill="#000000" d="m190.35547 30.2275l-2.515625 8.75q-0.21875 0.78125 -0.21875 1.125q0 0.28125 0.1875 0.4375q0.203125 0.15625 0.9375 0.203125l-0.078125 0.296875l-4.015625 0l0.109375 -0.296875q0.640625 -0.015625 0.84375 -0.09375q0.328125 -0.140625 0.484375 -0.375q0.265625 -0.359375 0.53125 -1.296875l1.8125 -6.28125q0.15625 -0.578125 0.171875 -0.65625q0.03125 -0.15625 0.03125 -0.3125q0 -0.265625 -0.15625 -0.421875q-0.140625 -0.15625 -0.40625 -0.15625q-0.203125 0 -0.625 0.09375l-0.109375 -0.28125l2.640625 -0.734375l0.375 0z" fill-rule="nonzero"/><path fill="#000000" fill-opacity="0.0" d="m400.0 0l40.0 0l0 48.0l-40.0 0z" fill-rule="evenodd"/><path fill="#000000" d="m415.23438 18.524376l-0.90625 3.1875l1.828125 0l-0.1875 0.734375l-1.828125 0l-2.015625 6.921875q-0.328125 1.109375 -0.328125 1.4375q0 0.203125 0.09375 0.3125q0.09375 0.09375 0.21875 0.09375q0.296875 0 0.765625 -0.40625q0.28125 -0.234375 1.265625 -1.4375l0.375 0.296875q-1.078125 1.5625 -2.03125 2.203125q-0.65625 0.453125 -1.328125 0.453125q-0.515625 0 -0.84375 -0.3125q-0.328125 -0.328125 -0.328125 -0.84375q0 -0.625 0.375 -1.921875l1.953125 -6.796875l-1.765625 0l0.125 -0.453125q1.28125 -0.34375 2.140625 -1.046875q0.859375 -0.703125 1.90625 -2.421875l0.515625 0z" fill-rule="nonzero"/><path fill="#000000" d="m421.19922 41.04l-5.28125 0l0 -0.296875q4.03125 -3.53125 5.328125 -5.53125q0.609375 -0.9375 0.609375 -1.953125q0 -0.8125 -0.5 -1.328125q-0.5 -0.515625 -1.296875 -0.515625q-1.109375 0 -1.8125 1.0625l-0.28125 -0.125q0.40625 -1.015625 1.171875 -1.5625q0.765625 -0.5625 1.65625 -0.5625q1.0 0 1.6875 0.6875q0.6875 0.6875 0.6875 1.671875q0 0.6875 -0.234375 1.28125q-0.375 0.90625 -1.390625 2.046875q-1.53125 1.734375 -4.078125 3.984375l2.65625 0q0.640625 0 1.046875 -0.265625q0.421875 -0.265625 0.59375 -0.703125l0.3125 0l-0.875 2.109375z" fill-rule="nonzero"/><path fill="#000000" fill-opacity="0.0" d="m512.0 0l40.0 0l0 48.0l-40.0 0z" fill-rule="evenodd"/><path fill="#000000" d="m527.2344 18.524376l-0.90625 3.1875l1.828125 0l-0.1875 0.734375l-1.828125 0l-2.015625 6.921875q-0.328125 1.109375 -0.328125 1.4375q0 0.203125 0.09375 0.3125q0.09375 0.09375 0.21875 0.09375q0.296875 0 0.765625 -0.40625q0.28125 -0.234375 1.265625 -1.4375l0.375 0.296875q-1.078125 1.5625 -2.03125 2.203125q-0.65625 0.453125 -1.328125 0.453125q-0.515625 0 -0.84375 -0.3125q-0.328125 -0.328125 -0.328125 -0.84375q0 -0.625 0.375 -1.921875l1.953125 -6.796875l-1.765625 0l0.125 -0.453125q1.28125 -0.34375 2.140625 -1.046875q0.859375 -0.703125 1.90625 -2.421875l0.515625 0z" fill-rule="nonzero"/><path fill="#000000" d="m530.1211 35.243126l0 -0.21875q1.890625 -0.296875 2.8125 -1.125q0.671875 -0.59375 0.671875 -1.421875q0 -0.609375 -0.390625 -1.015625q-0.390625 -0.40625 -0.9375 -0.40625q-0.875 0 -1.5625 1.09375l-0.28125 -0.09375q0.40625 -0.90625 1.03125 -1.359375q0.640625 -0.46875 1.40625 -0.46875q0.921875 0 1.484375 0.546875q0.578125 0.546875 0.578125 1.390625q0 0.71875 -0.546875 1.390625q-0.53125 0.65625 -1.828125 1.1875q0.8125 0.328125 1.21875 0.96875q0.421875 0.625 0.421875 1.5q0 0.984375 -0.5625 1.96875q-0.5625 0.96875 -1.546875 1.515625q-0.984375 0.53125 -2.0625 0.53125q-0.984375 0 -1.484375 -0.34375q-0.34375 -0.234375 -0.34375 -0.546875q0 -0.28125 0.203125 -0.46875q0.203125 -0.203125 0.484375 -0.203125q0.203125 0 0.40625 0.0625q0.125 0.046875 0.609375 0.328125q0.5 0.265625 0.765625 0.359375q0.28125 0.078125 0.5625 0.078125q0.703125 0 1.15625 -0.8125q0.46875 -0.8125 0.46875 -1.734375q0 -0.75 -0.3125 -1.328125q-0.3125 -0.59375 -0.984375 -0.953125q-0.65625 -0.375 -1.4375 -0.421875z" fill-rule="nonzero"/><path fill="#000000" fill-opacity="0.0" d="m64.0 64.0l0 240.0" fill-rule="evenodd"/><path stroke="#000000" stroke-width="1.0" stroke-linejoin="round" stroke-linecap="butt" stroke-dasharray="4.0,3.0" d="m64.0 64.0l0 240.0" fill-rule="evenodd"/><path fill="#000000" fill-opacity="0.0" d="m184.0 64.0l0 240.0" fill-rule="evenodd"/><path stroke="#000000" stroke-width="1.0" stroke-linejoin="round" stroke-linecap="butt" stroke-dasharray="4.0,3.0" d="m184.0 64.0l0 240.0" fill-rule="evenodd"/><path fill="#000000" fill-opacity="0.0" d="m416.0 64.0l0 240.0" fill-rule="evenodd"/><path stroke="#000000" stroke-width="1.0" stroke-linejoin="round" stroke-linecap="butt" stroke-dasharray="4.0,3.0" d="m416.0 64.0l0 240.0" fill-rule="evenodd"/><path fill="#000000" fill-opacity="0.0" d="m528.0 64.0l0 240.0" fill-rule="evenodd"/><path stroke="#000000" stroke-width="1.0" stroke-linejoin="round" stroke-linecap="butt" stroke-dasharray="4.0,3.0" d="m528.0 64.0l0 240.0" fill-rule="evenodd"/></g></svg>