<svg version="1.1" viewBox="0.0 0.0 533.1102362204724 542.7296587926509" fill="none" stroke="none" stroke-linecap="square" stroke-miterlimit="10" xmlns:xlink="http://www.w3.org/1999/xlink" xmlns="http://www.w3.org/2000/svg"><clipPath id="p.0"><path d="m0 0l533.1102 0l0 542.7297l-533.1102 0l0 -542.7297z" clip-rule="nonzero"/></clipPath><g clip-path="url(#p.0)"><path fill="#000000" fill-opacity="0.0" d="m0 0l533.1102 0l0 542.7297l-533.1102 0z" fill-rule="evenodd"/><path fill="#000000" fill-opacity="0.0" d="m56.131233 280.2467l0 0c0 -110.45694 89.54305 -199.99998 200.0 -199.99998l0 0c53.043304 0 103.91409 21.071365 141.42136 58.578644c37.507294 37.50728 58.578644 88.37805 58.578644 141.42134l0 0c0 110.45697 -89.54303 200.0 -200.0 200.0l0 0c-110.45694 0 -200.0 -89.54303 -200.0 -200.0z" fill-rule="evenodd"/><path stroke="#000000" stroke-width="1.0" stroke-linejoin="round" stroke-linecap="butt" d="m56.131233 280.2467l0 0c0 -110.45694 89.54305 -199.99998 200.0 -199.99998l0 0c53.043304 0 103.91409 21.071365 141.42136 58.578644c37.507294 37.50728 58.578644 88.37805 58.578644 141.42134l0 0c0 110.45697 -89.54303 200.0 -200.0 200.0l0 0c-110.45694 0 -200.0 -89.54303 -200.0 -200.0z" fill-rule="evenodd"/><path fill="#000000" fill-opacity="0.0" d="m56.131233 280.2467l0 0c0 -30.927933 89.54305 -55.999985 200.0 -55.999985l0 0c110.45697 0 200.0 25.072052 200.0 55.999985l0 0c0 30.927948 -89.54303 56.0 -200.0 56.0l0 0c-110.45694 0 -200.0 -25.072052 -200.0 -56.0z" fill-rule="evenodd"/><path stroke="#000000" stroke-width="1.0" stroke-linejoin="round" stroke-linecap="butt" stroke-dasharray="4.0,3.0" d="m56.131233 280.2467l0 0c0 -30.927933 89.54305 -55.999985 200.0 -55.999985l0 0c110.45697 0 200.0 25.072052 200.0 55.999985l0 0c0 30.927948 -89.54303 56.0 -200.0 56.0l0 0c-110.45694 0 -200.0 -25.072052 -200.0 -56.0z" fill-rule="evenodd"/><path fill="#000000" fill-opacity="0.0" d="m256.13123 528.2467l0 -520.0" fill-rule="evenodd"/><path stroke="#000000" stroke-width="2.0" stroke-linejoin="round" stroke-linecap="butt" d="m256.13123 528.2467l0 -513.1458" fill-rule="evenodd"/><path fill="#000000" stroke="#000000" stroke-width="2.0" stroke-linecap="butt" d="m256.13123 15.100892l2.249176 2.2491674l-2.249176 -6.179536l-2.2491608 6.179536z" fill-rule="evenodd"/><path fill="#000000" fill-opacity="0.0" d="m8.131233 280.2467l512.0 0" fill-rule="evenodd"/><path stroke="#000000" stroke-width="2.0" stroke-linejoin="round" stroke-linecap="butt" d="m8.131233 280.2467l505.1458 0" fill-rule="evenodd"/><path fill="#000000" stroke="#000000" stroke-width="2.0" stroke-linecap="butt" d="m513.27704 280.2467l-2.2491455 2.249176l6.1795654 -2.249176l-6.1795654 -2.2491455z" fill-rule="evenodd"/><path fill="#000000" fill-opacity="0.0" d="m368.13123 184.24672l-296.0 255.99998" fill-rule="evenodd"/><path stroke="#000000" stroke-width="2.0" stroke-linejoin="round" stroke-linecap="butt" d="m368.13123 184.24672l-290.81573 251.51631" fill-rule="evenodd"/><path fill="#000000" stroke="#000000" stroke-width="2.0" stroke-linecap="butt" d="m77.315475 435.76306l0.22988892 -3.1724854l-3.2026749 5.7435303l6.1452713 -2.341156z" fill-rule="evenodd"/><path fill="#000000" fill-opacity="0.0" d="m256.13123 280.2467l72.0 -151.99998" fill-rule="evenodd"/><path stroke="#0000ff" stroke-width="2.0" stroke-linejoin="round" stroke-linecap="butt" d="m256.13123 280.2467l69.06583 -145.8056" fill-rule="evenodd"/><path fill="#0000ff" stroke="#0000ff" stroke-width="2.0" stroke-linecap="butt" d="m325.19705 134.4411l1.0698242 2.9954834l0.6127014 -6.547516l-4.678009 4.6218414z" fill-rule="evenodd"/><path fill="#000000" fill-opacity="0.0" d="m328.13123 128.24672l0 175.99998" fill-rule="evenodd"/><path stroke="#000000" stroke-width="1.0" stroke-linejoin="round" stroke-linecap="butt" stroke-dasharray="4.0,3.0" d="m328.13123 128.24672l0 175.99998" fill-rule="evenodd"/><path fill="#000000" fill-opacity="0.0" d="m328.13123 304.2467l-72.0 -24.0" fill-rule="evenodd"/><path stroke="#000000" stroke-width="1.0" stroke-linejoin="round" stroke-linecap="butt" stroke-dasharray="4.0,3.0" d="m328.13123 304.2467l-72.0 -24.0" fill-rule="evenodd"/><path fill="#000000" fill-opacity="0.0" d="m294.6063 292.8542c-3.6710205 5.4257812 -13.524628 9.584106 -25.90625 10.932678c-12.381653 1.3486023 -25.444733 -0.3136902 -34.344315 -4.3703003l25.775497 -11.169861z" fill-rule="evenodd"/><path fill="#000000" fill-opacity="0.0" d="m294.6063 292.8542c-3.6710205 5.4257812 -13.524628 9.584106 -25.90625 10.932678c-12.381653 1.3486023 -25.444733 -0.3136902 -34.344315 -4.3703003" fill-rule="evenodd"/><path stroke="#434343" stroke-width="1.0" stroke-linejoin="round" stroke-linecap="butt" d="m294.6063 292.8542c-3.6710205 5.4257812 -13.524628 9.584106 -25.90625 10.932678c-12.381653 1.3486023 -25.444733 -0.3136902 -34.344315 -4.3703003" fill-rule="evenodd"/><path fill="#000000" fill-opacity="0.0" d="m256.8476 216.46384l0 0c5.8237305 -0.77545166 11.778198 0.5471802 16.268555 3.613617c4.4903564 3.066452 7.0577393 7.5633698 7.014557 12.286331l-19.999481 -0.11706543z" fill-rule="evenodd"/><path fill="#000000" fill-opacity="0.0" d="m256.8476 216.46384l0 0c5.8237305 -0.77545166 11.778198 0.5471802 16.268555 3.613617c4.4903564 3.066452 7.0577393 7.5633698 7.014557 12.286331" fill-rule="evenodd"/><path stroke="#434343" stroke-width="1.0" stroke-linejoin="round" stroke-linecap="butt" d="m256.8476 216.46384l0 0c5.8237305 -0.77545166 11.778198 0.5471802 16.268555 3.613617c4.4903564 3.066452 7.0577393 7.5633698 7.014557 12.286331" fill-rule="evenodd"/><path fill="#000000" fill-opacity="0.0" d="m256.13123 184.24672l32.0 0l0 40.0l-32.0 0z" fill-rule="evenodd"/><path fill="#000000" d="m266.31873 206.7136q0 -3.203125 1.546875 -6.171875q1.5625 -2.96875 4.09375 -2.953125q1.578125 -0.046875 2.578125 1.078125q1.0 1.125 1.0 3.421875q0 3.4375 -1.546875 6.375q-1.546875 2.921875 -4.078125 2.921875q-1.59375 0 -2.59375 -1.234375q-1.0 -1.25 -1.0 -3.4375zm2.078125 -2.828125l5.359375 0q0.234375 -1.40625 0.234375 -2.25q0 -1.234375 -0.578125 -1.96875q-0.578125 -0.734375 -1.515625 -0.734375q-2.34375 0 -3.5 4.953125zm5.09375 1.359375l-5.375 0q-0.171875 1.234375 -0.171875 1.890625q0 1.3125 0.546875 2.109375q0.5625 0.796875 1.515625 0.796875q1.125 0 2.046875 -1.28125q0.921875 -1.296875 1.4375 -3.515625z" fill-rule="nonzero"/><path fill="#000000" fill-opacity="0.0" d="m264.13123 288.2467l32.0 0l0 40.0l-32.0 0z" fill-rule="evenodd"/><path fill="#000000" d="m283.20935 309.32297q0 1.609375 -0.625 3.0q-0.6875 1.515625 -1.96875 2.296875q-1.046875 0.65625 -2.234375 0.75l-0.71875 3.5l-1.65625 0l0.765625 -3.640625q-0.421875 -0.109375 -0.828125 -0.328125q-1.90625 -0.984375 -1.90625 -3.40625q0 -2.828125 1.671875 -4.6875q1.234375 -1.375 3.140625 -1.515625l0.71875 -3.484375l1.65625 0l-0.75 3.609375q0.96875 0.234375 1.671875 0.953125q1.0625 1.078125 1.0625 2.953125zm-1.640625 -0.015625q0 -1.3125 -0.65625 -2.03125q-0.296875 -0.34375 -0.71875 -0.53125l-1.53125 7.28125q0.765625 -0.1875 1.359375 -0.78125q0.859375 -0.828125 1.265625 -2.203125q0.28125 -0.921875 0.28125 -1.734375zm-3.0 -2.671875q-1.078125 0.25 -1.875 1.359375q-1.0 1.390625 -1.0 3.34375q0 1.34375 0.65625 2.0625q0.3125 0.328125 0.703125 0.515625l1.515625 -7.28125z" fill-rule="nonzero"/><path fill="#000000" fill-opacity="0.0" d="m328.13123 120.24672l48.0 0l0 40.0l-48.0 0z" fill-rule="evenodd"/><path fill="#000000" d="m338.84998 151.0886l0 -17.5l1.421875 0l0 17.5l-1.421875 0z" fill-rule="nonzero"/><path fill="#000000" d="m354.1806 139.5886q0 0.484375 -0.1875 1.296875q-0.1875 0.8125 -0.640625 1.875q-0.4375 1.0625 -1.0625 2.015625q-0.625 0.953125 -1.65625 1.6875q-1.03125 0.71875 -2.234375 0.890625l-0.828125 3.984375l-1.75 0l1.171875 -3.984375q-1.390625 -0.03125 -2.296875 -0.6875q-0.90625 -0.671875 -0.90625 -2.0q0 -0.796875 0.546875 -2.484375q0.5625 -1.6875 0.5625 -2.359375q0 -0.484375 -0.4375 -0.484375q-0.375 0 -0.65625 0.25q-0.28125 0.234375 -0.421875 0.59375q-0.140625 0.34375 -0.265625 0.734375q-0.109375 0.390625 -0.171875 0.6875l-0.546875 0q0.15625 -0.5625 0.25 -0.875q0.109375 -0.328125 0.328125 -0.796875q0.21875 -0.46875 0.46875 -0.71875q0.25 -0.25 0.65625 -0.4375q0.40625 -0.203125 0.9375 -0.203125q0.671875 0 0.984375 0.4375q0.3125 0.4375 0.3125 1.140625q0 0.859375 -0.5625 2.53125q-0.546875 1.65625 -0.546875 2.5q0 1.625 1.90625 1.71875l2.953125 -10.140625l0.46875 0l-2.109375 10.140625q1.671875 -0.21875 2.8125 -1.671875q1.140625 -1.453125 1.140625 -3.15625q0 -0.359375 -0.09375 -1.046875q-0.078125 -0.703125 -0.078125 -1.0625q0 -0.515625 0.265625 -0.953125q0.265625 -0.4375 0.765625 -0.4375q0.921875 0 0.921875 1.015625z" fill-rule="nonzero"/><path fill="#000000" d="m364.76566 141.32297l-8.84375 3.78125l0 -1.625l7.015625 -2.90625l-7.015625 -2.875l0 -1.640625l8.84375 3.734375l0 1.53125z" fill-rule="nonzero"/><path fill="#000000" fill-opacity="0.0" d="m256.13123 8.246719l48.0 0l0 32.0l-48.0 0z" fill-rule="evenodd"/><path fill="#000000" d="m265.50623 35.166718l0 -1.640625l6.84375 -8.546875q0.71875 -0.921875 1.375 -1.59375l-7.453125 0l0 -1.578125l9.578125 0l0 1.578125l-7.5 9.265625l-0.8125 0.9375l8.53125 0l0 1.578125l-10.5625 0z" fill-rule="nonzero"/><path fill="#000000" fill-opacity="0.0" d="m480.13123 288.2467l48.0 0l0 32.0l-48.0 0z" fill-rule="evenodd"/><path fill="#000000" d="m494.33435 315.16672l0 -5.65625l-5.15625 -7.703125l2.15625 0l2.640625 4.03125q0.71875 1.125 1.34375 2.265625q0.609375 -1.046875 1.46875 -2.359375l2.578125 -3.9375l2.0625 0l-5.328125 7.703125l0 5.65625l-1.765625 0z" fill-rule="nonzero"/><path fill="#000000" fill-opacity="0.0" d="m64.13123 440.2467l48.0 0l0 32.0l-48.0 0z" fill-rule="evenodd"/><path fill="#000000" d="m73.20936 467.16672l5.171875 -6.953125l-4.5625 -6.40625l2.109375 0l2.421875 3.4375q0.75 1.0625 1.078125 1.625q0.4375 -0.71875 1.046875 -1.515625l2.6875 -3.546875l1.921875 0l-4.6875 6.296875l5.0625 7.0625l-2.1875 0l-3.359375 -4.765625q-0.28125 -0.40625 -0.59375 -0.890625q-0.4375 0.734375 -0.625 1.0l-3.359375 4.65625l-2.125 0z" fill-rule="nonzero"/><path fill="#000000" fill-opacity="0.0" d="m256.13123 472.2467l64.0 0l0 40.0l-64.0 0z" fill-rule="evenodd"/><path fill="#000000" d="m265.72498 495.1511l0 -1.640625l5.03125 0l0 1.640625l-5.03125 0zm5.993927 4.015625l0 -1.640625l6.84375 -8.546875q0.71875 -0.921875 1.375 -1.59375l-7.453125 0l0 -1.578125l9.578125 0l0 1.578125l-7.5 9.265625l-0.8125 0.9375l8.53125 0l0 1.578125l-10.5625 0zm5.765625 -15.421875l-1.03125 1.546875l-1.875 0l1.96875 -2.546875l1.734375 0l2.0625 2.546875l-1.859375 0l-1.0 -1.546875z" fill-rule="nonzero"/><path fill="#000000" fill-opacity="0.0" d="m256.13123 48.24672l60.629944 0l0 40.0l-60.629944 0z" fill-rule="evenodd"/><path fill="#000000" d="m269.8031 73.01047l0 -3.671875l-3.640625 0l0 -1.515625l3.640625 0l0 -3.640625l1.546875 0l0 3.640625l3.640625 0l0 1.515625l-3.640625 0l0 3.671875l-1.546875 0zm6.5980835 2.15625l0 -1.640625l6.84375 -8.546875q0.71875 -0.921875 1.375 -1.59375l-7.453125 0l0 -1.578125l9.578125 0l0 1.578125l-7.5 9.265625l-0.8125 0.9375l8.53125 0l0 1.578125l-10.5625 0zm5.765625 -15.421875l-1.03125 1.546875l-1.875 0l1.96875 -2.546875l1.734375 0l2.0625 2.546875l-1.859375 0l-1.0 -1.546875z" fill-rule="nonzero"/><path fill="#000000" d="m184.13124 336.2467l0 0c0 -4.418274 3.5817108 -8.0 8.0 -8.0l0 0c2.1217194 0 4.156555 0.842865 5.656845 2.3431702c1.5002899 1.5002747 2.343155 3.5351257 2.343155 5.65683l0 0c0 4.4183044 -3.581726 8.0 -8.0 8.0l0 0c-4.418289 0 -8.0 -3.5816956 -8.0 -8.0z" fill-rule="evenodd"/><path stroke="#000000" stroke-width="1.0" stroke-linejoin="round" stroke-linecap="butt" d="m184.13124 336.2467l0 0c0 -4.418274 3.5817108 -8.0 8.0 -8.0l0 0c2.1217194 0 4.156555 0.842865 5.656845 2.3431702c1.5002899 1.5002747 2.343155 3.5351257 2.343155 5.65683l0 0c0 4.4183044 -3.581726 8.0 -8.0 8.0l0 0c-4.418289 0 -8.0 -3.5816956 -8.0 -8.0z" fill-rule="evenodd"/><path fill="#000000" d="m48.131233 280.2467l0 0c0 -4.418274 3.5817223 -8.0 8.0 -8.0l0 0c2.1217308 0 4.156563 0.842865 5.6568565 2.3431702c1.5002899 1.5002747 2.3431435 3.5351257 2.3431435 5.65683l0 0c0 4.4183044 -3.5817223 8.0 -8.0 8.0l0 0c-4.4182777 0 -8.0 -3.5816956 -8.0 -8.0z" fill-rule="evenodd"/><path stroke="#000000" stroke-width="1.0" stroke-linejoin="round" stroke-linecap="butt" d="m48.131233 280.2467l0 0c0 -4.418274 3.5817223 -8.0 8.0 -8.0l0 0c2.1217308 0 4.156563 0.842865 5.6568565 2.3431702c1.5002899 1.5002747 2.3431435 3.5351257 2.3431435 5.65683l0 0c0 4.4183044 -3.5817223 8.0 -8.0 8.0l0 0c-4.4182777 0 -8.0 -3.5816956 -8.0 -8.0z" fill-rule="evenodd"/><path fill="#000000" d="m448.13123 280.2467l0 0c0 -4.418274 3.581726 -8.0 8.0 -8.0l0 0c2.1217346 0 4.1565857 0.842865 5.6568604 2.3431702c1.5003052 1.5002747 2.3431396 3.5351257 2.3431396 5.65683l0 0c0 4.4183044 -3.581726 8.0 -8.0 8.0l0 0c-4.418274 0 -8.0 -3.5816956 -8.0 -8.0z" fill-rule="evenodd"/><path stroke="#000000" stroke-width="1.0" stroke-linejoin="round" stroke-linecap="butt" d="m448.13123 280.2467l0 0c0 -4.418274 3.581726 -8.0 8.0 -8.0l0 0c2.1217346 0 4.1565857 0.842865 5.6568604 2.3431702c1.5003052 1.5002747 2.3431396 3.5351257 2.3431396 5.65683l0 0c0 4.4183044 -3.581726 8.0 -8.0 8.0l0 0c-4.418274 0 -8.0 -3.5816956 -8.0 -8.0z" fill-rule="evenodd"/><path fill="#000000" fill-opacity="0.0" d="m200.13124 336.2467l32.0 0l0 40.0l-32.0 0z" fill-rule="evenodd"/><path fill="#000000" d="m210.56874 363.16672l0 -13.359375l4.609375 0q1.546875 0 2.375 0.203125q1.140625 0.25 1.953125 0.953125q1.0625 0.890625 1.578125 2.28125q0.53125 1.390625 0.53125 3.171875q0 1.515625 -0.359375 2.703125q-0.359375 1.171875 -0.921875 1.9375q-0.546875 0.765625 -1.203125 1.21875q-0.65625 0.4375 -1.59375 0.671875q-0.9375 0.21875 -2.140625 0.21875l-4.828125 0zm1.765625 -1.578125l2.859375 0q1.3125 0 2.0625 -0.234375q0.75 -0.25 1.203125 -0.703125q0.625 -0.625 0.96875 -1.6875q0.359375 -1.0625 0.359375 -2.578125q0 -2.09375 -0.6875 -3.21875q-0.6875 -1.125 -1.671875 -1.5q-0.703125 -0.28125 -2.28125 -0.28125l-2.8125 0l0 10.203125z" fill-rule="nonzero"/><path fill="#000000" fill-opacity="0.0" d="m16.131233 288.2467l32.0 0l0 40.0l-32.0 0z" fill-rule="evenodd"/><path fill="#000000" d="m26.662483 315.16672l0 -13.359375l9.015625 0l0 1.578125l-7.25 0l0 4.140625l6.265625 0l0 1.578125l-6.265625 0l0 6.0625l-1.765625 0z" fill-rule="nonzero"/><path fill="#000000" fill-opacity="0.0" d="m456.13123 240.24672l32.0 0l0 39.999985l-32.0 0z" fill-rule="evenodd"/><path fill="#000000" d="m472.81873 261.93234l0 -1.578125l5.65625 0l0 4.953125q-1.296875 1.046875 -2.6875 1.578125q-1.375 0.515625 -2.84375 0.515625q-1.96875 0 -3.578125 -0.84375q-1.609375 -0.84375 -2.421875 -2.4375q-0.8125 -1.59375 -0.8125 -3.5625q0 -1.953125 0.8125 -3.640625q0.8125 -1.6875 2.34375 -2.5q1.53125 -0.828125 3.515625 -0.828125q1.453125 0 2.625 0.46875q1.171875 0.46875 1.828125 1.3125q0.671875 0.828125 1.015625 2.171875l-1.59375 0.4375q-0.296875 -1.015625 -0.75 -1.59375q-0.4375 -0.59375 -1.265625 -0.9375q-0.828125 -0.34375 -1.84375 -0.34375q-1.203125 0 -2.09375 0.375q-0.890625 0.359375 -1.4375 0.96875q-0.53125 0.59375 -0.828125 1.3125q-0.515625 1.234375 -0.515625 2.6875q0 1.78125 0.609375 2.984375q0.625 1.203125 1.796875 1.796875q1.171875 0.578125 2.5 0.578125q1.140625 0 2.234375 -0.4375q1.09375 -0.453125 1.65625 -0.953125l0 -2.484375l-3.921875 0z" fill-rule="nonzero"/><path fill="#000000" d="m248.13124 80.24672l0 0c0 -4.4182816 3.5817108 -8.0 7.9999847 -8.0l0 0c2.1217346 0 4.1565857 0.84285736 5.6568604 2.3431473c1.5003052 1.5002899 2.3431396 3.535118 2.3431396 5.6568527l0 0c0 4.4182816 -3.581726 8.0 -8.0 8.0l0 0c-4.418274 0 -7.9999847 -3.5817184 -7.9999847 -8.0z" fill-rule="evenodd"/><path stroke="#000000" stroke-width="1.0" stroke-linejoin="round" stroke-linecap="butt" d="m248.13124 80.24672l0 0c0 -4.4182816 3.5817108 -8.0 7.9999847 -8.0l0 0c2.1217346 0 4.1565857 0.84285736 5.6568604 2.3431473c1.5003052 1.5002899 2.3431396 3.535118 2.3431396 5.6568527l0 0c0 4.4182816 -3.581726 8.0 -8.0 8.0l0 0c-4.418274 0 -7.9999847 -3.5817184 -7.9999847 -8.0z" fill-rule="evenodd"/><path fill="#000000" d="m248.13124 480.2467l0 0c0 -4.418274 3.5817108 -8.0 7.9999847 -8.0l0 0c2.1217346 0 4.1565857 0.842865 5.6568604 2.3431702c1.5003052 1.5002747 2.3431396 3.5351257 2.3431396 5.65683l0 0c0 4.4183044 -3.581726 8.0 -8.0 8.0l0 0c-4.418274 0 -7.9999847 -3.5816956 -7.9999847 -8.0z" fill-rule="evenodd"/><path stroke="#000000" stroke-width="1.0" stroke-linejoin="round" stroke-linecap="butt" d="m248.13124 480.2467l0 0c0 -4.418274 3.5817108 -8.0 7.9999847 -8.0l0 0c2.1217346 0 4.1565857 0.842865 5.6568604 2.3431702c1.5003052 1.5002747 2.3431396 3.5351257 2.3431396 5.65683l0 0c0 4.4183044 -3.581726 8.0 -8.0 8.0l0 0c-4.418274 0 -7.9999847 -3.5816956 -7.9999847 -8.0z" fill-rule="evenodd"/></g></svg>