<svg xmlns="http://www.w3.org/2000/svg" width="363.9494921875" height="150.0"><line x1="30.0" x2="333.9494921875" y1="25.0" y2="25.0" stroke="#1967d2" stroke-width="1" /><line x1="30.0" x2="333.9494921875" y1="75.0" y2="75.0" stroke="#1967d2" stroke-width="1" /><line x1="30.0" x2="333.9494921875" y1="125.0" y2="125.0" stroke="#1967d2" stroke-width="1" /><line x1="101.97474609375" x2="101.97474609375" y1="75.0" y2="125.0" stroke="black" stroke-width="3" /><line x1="173.9494921875" x2="173.9494921875" y1="25.0" y2="75.0" stroke="black" stroke-width="3" /><rect x="10.0" y="5.0" width="40" height="40" stroke="black" fill="white" stroke-width="0" /><text x="30.0" y="25.0" dominant-baseline="middle" text-anchor="middle" font-size="14px">𝜓: </text><rect x="10.0" y="55.0" width="40" height="40" stroke="black" fill="white" stroke-width="0" /><text x="30.0" y="75.0" dominant-baseline="middle" text-anchor="middle" font-size="14px">𝜙0: </text><rect x="10.0" y="105.0" width="40" height="40" stroke="black" fill="white" stroke-width="0" /><text x="30.0" y="125.0" dominant-baseline="middle" text-anchor="middle" font-size="14px">𝜙1: </text><rect x="70.0" y="5.0" width="63.9494921875" height="40" stroke="black" fill="white" stroke-width="1" /><text x="101.97474609375" y="25.0" dominant-baseline="middle" text-anchor="middle" font-size="14px">Rx(0.5π)</text><rect x="70.0" y="55.0" width="63.9494921875" height="40" stroke="black" fill="white" stroke-width="1" /><text x="101.97474609375" y="75.0" dominant-baseline="middle" text-anchor="middle" font-size="18px">E</text><rect x="70.0" y="105.0" width="63.9494921875" height="40" stroke="black" fill="white" stroke-width="1" /><text x="101.97474609375" y="125.0" dominant-baseline="middle" text-anchor="middle" font-size="18px">E</text><circle cx="173.9494921875" cy="25.0" r="10.0" /><rect x="153.9494921875" y="55.0" width="40" height="40" stroke="black" fill="white" stroke-width="1" /><text x="173.9494921875" y="75.0" dominant-baseline="middle" text-anchor="middle" font-size="18px">X</text><rect x="213.9494921875" y="5.0" width="40" height="40" stroke="black" fill="white" stroke-width="1" /><text x="233.9494921875" y="25.0" dominant-baseline="middle" text-anchor="middle" font-size="18px">H</text><rect x="273.9494921875" y="55.0" width="40" height="40" stroke="black" fill="white" stroke-width="1" /><text x="293.9494921875" y="75.0" dominant-baseline="middle" text-anchor="middle" font-size="18px">M</text><rect x="273.9494921875" y="5.0" width="40" height="40" stroke="black" fill="white" stroke-width="1" /><text x="293.9494921875" y="25.0" dominant-baseline="middle" text-anchor="middle" font-size="18px">M</text></svg>